<svg width="500" height="500" viewBox="0 0 500 500" fill="none" xmlns="http://www.w3.org/2000/svg">
<path d="M449.9 398.49H416.78V398.74H449.9V398.49Z" fill="#EBEBEB"/>
<path d="M331.22 401.21H322.53V401.46H331.22V401.21Z" fill="#EBEBEB"/>
<path d="M415.78 389.21H396.59V389.46H415.78V389.21Z" fill="#EBEBEB"/>
<path d="M95.65 390.89H52.46V391.14H95.65V390.89Z" fill="#EBEBEB"/>
<path d="M110.89 390.89H104.56V391.14H110.89V390.89Z" fill="#EBEBEB"/>
<path d="M225.15 395.11H131.47V395.36H225.15V395.11Z" fill="#EBEBEB"/>
<path d="M237 337.8H43.92C42.4056 337.8 40.9532 337.198 39.8824 336.128C38.8116 335.057 38.21 333.604 38.21 332.09V60.66C38.2232 59.1543 38.8306 57.7147 39.9 56.6547C40.9694 55.5947 42.4142 54.9999 43.92 55H237C238.514 55 239.967 55.6016 241.038 56.6724C242.108 57.7433 242.71 59.1956 242.71 60.71V332.09C242.71 333.604 242.108 335.057 241.038 336.128C239.967 337.198 238.514 337.8 237 337.8ZM43.92 55.2C42.4727 55.2026 41.0855 55.7787 40.0621 56.8021C39.0387 57.8255 38.4626 59.2127 38.46 60.66V332.09C38.4626 333.537 39.0387 334.924 40.0621 335.948C41.0855 336.971 42.4727 337.547 43.92 337.55H237C238.447 337.547 239.835 336.971 240.858 335.948C241.881 334.924 242.457 333.537 242.46 332.09V60.66C242.457 59.2127 241.881 57.8255 240.858 56.8021C239.835 55.7787 238.447 55.2026 237 55.2H43.92Z" fill="#EBEBEB"/>
<path d="M453.31 337.8H260.21C258.696 337.797 257.246 337.195 256.175 336.125C255.105 335.054 254.503 333.604 254.5 332.09V60.66C254.516 59.1551 255.124 57.7171 256.193 56.6576C257.262 55.5981 258.705 55.0025 260.21 55H453.31C454.812 55.0052 456.252 55.6022 457.317 56.6617C458.382 57.7212 458.987 59.1578 459 60.66V332.09C459 333.601 458.401 335.05 457.335 336.121C456.268 337.191 454.821 337.795 453.31 337.8ZM260.21 55.2C258.763 55.2026 257.375 55.7787 256.352 56.8021C255.329 57.8255 254.753 59.2127 254.75 60.66V332.09C254.753 333.537 255.329 334.924 256.352 335.948C257.375 336.971 258.763 337.547 260.21 337.55H453.31C454.757 337.547 456.145 336.971 457.168 335.948C458.191 334.924 458.767 333.537 458.77 332.09V60.66C458.767 59.2127 458.191 57.8255 457.168 56.8021C456.145 55.7787 454.757 55.2026 453.31 55.2H260.21Z" fill="#EBEBEB"/>
<path d="M500 382.4H0V382.65H500V382.4Z" fill="#EBEBEB"/>
<path d="M428.78 140.85V146.85C432.552 147.175 436.127 148.675 439 151.14L443.27 146.87C439.248 143.301 434.147 141.181 428.78 140.85Z" fill="#F0F0F0"/>
<path d="M425.86 182.91C421.586 182.563 417.575 180.708 414.543 177.677C411.512 174.645 409.657 170.634 409.31 166.36H403.31C403.653 172.237 406.136 177.786 410.291 181.957C414.446 186.128 419.984 188.634 425.86 189V182.91Z" fill="#E6E6E6"/>
<path d="M409.31 163.45C409.658 159.176 411.514 155.165 414.545 152.132C417.576 149.099 421.586 147.241 425.86 146.89V140.89C419.985 141.25 414.445 143.747 410.283 147.91C406.122 152.073 403.628 157.615 403.27 163.49L409.31 163.45Z" fill="#EBEBEB"/>
<path d="M445.36 148.93L441.09 153.2C443.246 155.733 444.661 158.812 445.179 162.097C445.696 165.383 445.297 168.748 444.023 171.821C442.75 174.894 440.653 177.555 437.963 179.512C435.274 181.469 432.096 182.645 428.78 182.91V188.91C433.285 188.635 437.622 187.099 441.297 184.479C444.972 181.859 447.837 178.259 449.565 174.089C451.293 169.92 451.815 165.349 451.072 160.897C450.328 156.445 448.349 152.292 445.36 148.91V148.93Z" fill="#E0E0E0"/>
<path d="M245.87 153.75H250.31C251.039 153.75 251.739 154.04 252.255 154.555C252.77 155.071 253.06 155.771 253.06 156.5V285.59H243.11V156.5C243.11 156.138 243.181 155.78 243.32 155.445C243.459 155.111 243.663 154.807 243.919 154.552C244.175 154.296 244.48 154.094 244.815 153.956C245.149 153.819 245.508 153.749 245.87 153.75Z" fill="#E6E6E6"/>
<path d="M248.93 153.75H246.19C245.375 153.75 244.593 154.073 244.016 154.649C243.438 155.224 243.113 156.005 243.11 156.82V285.59H245.85V156.82C245.853 156.005 246.178 155.224 246.756 154.649C247.333 154.073 248.115 153.75 248.93 153.75Z" fill="#F0F0F0"/>
<path d="M255.95 277.08H240.29V382.65H255.95V277.08Z" fill="#EBEBEB"/>
<path d="M234.72 378.38H261.52C262.533 378.38 263.505 378.782 264.221 379.499C264.938 380.215 265.34 381.187 265.34 382.2V382.64H230.9V382.2C230.9 381.187 231.302 380.215 232.019 379.499C232.735 378.782 233.707 378.38 234.72 378.38Z" fill="#E6E6E6"/>
<path d="M396.42 330.5H421.67C423.847 330.497 425.933 329.632 427.472 328.092C429.012 326.553 429.877 324.467 429.88 322.29V285.37C429.88 284.972 429.722 284.591 429.441 284.309C429.159 284.028 428.778 283.87 428.38 283.87C427.982 283.87 427.601 284.028 427.319 284.309C427.038 284.591 426.88 284.972 426.88 285.37V322.29C426.88 323.672 426.331 324.997 425.354 325.974C424.377 326.951 423.052 327.5 421.67 327.5H396.42V330.5Z" fill="#E0E0E0"/>
<path d="M389.2 365.88V331.5L387.2 330.87C386.093 330.522 385.127 329.83 384.44 328.895C383.753 327.96 383.382 326.83 383.38 325.67H402.43C402.43 326.831 402.059 327.961 401.372 328.896C400.685 329.831 399.717 330.523 398.61 330.87L396.61 331.5V365.88L412.42 373V376L392.89 369.17L373.36 376V373L389.2 365.88Z" fill="#E0E0E0"/>
<path d="M368 327.5H417.81C418.52 327.5 419.224 327.36 419.88 327.088C420.537 326.816 421.133 326.418 421.635 325.915C422.138 325.413 422.536 324.817 422.808 324.16C423.08 323.504 423.22 322.8 423.22 322.09C423.217 320.657 422.646 319.283 421.632 318.271C420.618 317.259 419.243 316.69 417.81 316.69H368C366.568 316.69 365.194 317.259 364.182 318.272C363.169 319.284 362.6 320.658 362.6 322.09C362.599 322.8 362.737 323.503 363.008 324.16C363.279 324.816 363.677 325.412 364.178 325.915C364.68 326.417 365.275 326.816 365.931 327.088C366.587 327.36 367.29 327.5 368 327.5Z" fill="#F0F0F0"/>
<path d="M426.58 298.36L429.27 259.92C429.369 258.494 428.898 257.086 427.961 256.006C427.024 254.926 425.696 254.263 424.27 254.16C422.842 254.058 421.432 254.528 420.35 255.465C419.268 256.403 418.602 257.732 418.5 259.16L415.81 297.6C415.711 299.028 416.181 300.436 417.118 301.518C418.056 302.599 419.383 303.265 420.81 303.37C422.239 303.469 423.649 302.997 424.731 302.058C425.812 301.119 426.477 299.789 426.58 298.36Z" fill="#EBEBEB"/>
<path d="M409 378.11C409 378.786 409.201 379.448 409.576 380.01C409.952 380.572 410.486 381.011 411.111 381.27C411.736 381.529 412.424 381.596 413.087 381.464C413.751 381.332 414.36 381.007 414.838 380.528C415.317 380.05 415.642 379.441 415.774 378.777C415.906 378.114 415.839 377.426 415.58 376.801C415.321 376.176 414.882 375.642 414.32 375.266C413.758 374.891 413.096 374.69 412.42 374.69C411.971 374.69 411.526 374.778 411.111 374.95C410.696 375.122 410.319 375.374 410.002 375.692C409.684 376.009 409.432 376.386 409.26 376.801C409.088 377.216 409 377.661 409 378.11Z" fill="#E0E0E0"/>
<path d="M369.94 378.11C369.94 378.786 370.141 379.448 370.516 380.01C370.892 380.572 371.426 381.011 372.051 381.27C372.676 381.529 373.364 381.596 374.027 381.464C374.691 381.332 375.3 381.007 375.778 380.528C376.257 380.05 376.582 379.441 376.714 378.777C376.846 378.114 376.779 377.426 376.52 376.801C376.261 376.176 375.822 375.642 375.26 375.266C374.698 374.891 374.036 374.69 373.36 374.69C372.453 374.69 371.583 375.05 370.942 375.692C370.3 376.333 369.94 377.203 369.94 378.11Z" fill="#E0E0E0"/>
<path d="M100.37 330.5H75.12C72.9416 330.5 70.8524 329.635 69.3111 328.096C67.7698 326.557 66.9026 324.468 66.9 322.29V285.37C66.9 284.972 67.058 284.591 67.3393 284.309C67.6206 284.028 68.0022 283.87 68.4 283.87C68.7978 283.87 69.1794 284.028 69.4607 284.309C69.742 284.591 69.9 284.972 69.9 285.37V322.29C69.9026 323.673 70.4538 324.998 71.4324 325.975C72.4111 326.951 73.7373 327.5 75.12 327.5H100.37V330.5Z" fill="#E0E0E0"/>
<path d="M107.59 365.88V331.5L109.59 330.87C110.696 330.521 111.661 329.829 112.346 328.894C113.031 327.959 113.401 326.829 113.4 325.67H94.4C94.4017 326.83 94.7728 327.96 95.4597 328.895C96.1466 329.83 97.1134 330.522 98.22 330.87L100.22 331.5V365.88L84.37 373V376L103.9 369.17L123.43 376V373L107.59 365.88Z" fill="#E0E0E0"/>
<path d="M128.8 327.5H79C77.5669 327.497 76.1934 326.926 75.181 325.912C74.1686 324.898 73.6 323.523 73.6 322.09C73.6 320.658 74.1689 319.284 75.1816 318.272C76.1943 317.259 77.5678 316.69 79 316.69H128.8C130.233 316.69 131.608 317.259 132.622 318.271C133.636 319.283 134.207 320.657 134.21 322.09C134.21 323.525 133.64 324.901 132.625 325.915C131.611 326.93 130.235 327.5 128.8 327.5Z" fill="#F0F0F0"/>
<path d="M70.2 298.36L67.51 259.92C67.411 258.494 67.8818 257.086 68.8191 256.006C69.7565 254.926 71.0838 254.263 72.51 254.16C73.9381 254.058 75.3482 254.528 76.4302 255.465C77.5122 256.403 78.1776 257.732 78.28 259.16L81 297.61C81.0991 299.038 80.6286 300.446 79.6915 301.528C78.7544 302.609 77.4271 303.275 76 303.38C75.2892 303.433 74.5749 303.345 73.8981 303.121C73.2213 302.898 72.5955 302.542 72.0565 302.076C71.5175 301.609 71.0761 301.041 70.7575 300.403C70.4389 299.765 70.2494 299.071 70.2 298.36Z" fill="#EBEBEB"/>
<path d="M87.78 378.11C87.78 378.787 87.5792 379.448 87.2029 380.011C86.8267 380.574 86.292 381.012 85.6665 381.271C85.041 381.529 84.3528 381.596 83.6891 381.464C83.0254 381.331 82.4161 381.004 81.9382 380.525C81.4603 380.045 81.1353 379.435 81.0045 378.771C80.8737 378.107 80.9428 377.419 81.2032 376.794C81.4636 376.17 81.9035 375.636 82.4672 375.262C83.031 374.887 83.6932 374.688 84.37 374.69C84.8187 374.69 85.2629 374.779 85.6773 374.951C86.0916 375.123 86.468 375.375 86.7848 375.692C87.1016 376.01 87.3525 376.387 87.5233 376.802C87.6941 377.217 87.7813 377.661 87.78 378.11Z" fill="#E0E0E0"/>
<path d="M126.84 378.11C126.84 378.787 126.639 379.448 126.263 380.011C125.887 380.574 125.352 381.012 124.726 381.271C124.101 381.529 123.413 381.596 122.749 381.464C122.085 381.331 121.476 381.004 120.998 380.525C120.52 380.045 120.195 379.435 120.065 378.771C119.934 378.107 120.003 377.419 120.263 376.794C120.524 376.17 120.964 375.636 121.527 375.262C122.091 374.887 122.753 374.688 123.43 374.69C123.879 374.69 124.323 374.779 124.737 374.951C125.152 375.123 125.528 375.375 125.845 375.692C126.162 376.01 126.413 376.387 126.583 376.802C126.754 377.217 126.841 377.661 126.84 378.11Z" fill="#E0E0E0"/>
<path d="M207.68 382.65H188.18L186.18 345.67H209.68L207.68 382.65Z" fill="#EBEBEB"/>
<path d="M192.68 382.65H184.68V381L192.68 380V382.65Z" fill="#E0E0E0"/>
<path d="M189.15 342.67H206.71C207.506 342.67 208.269 342.986 208.831 343.549C209.394 344.111 209.71 344.874 209.71 345.67H186.17C186.17 344.874 186.486 344.111 187.049 343.549C187.611 342.986 188.374 342.67 189.17 342.67H189.15Z" fill="#E0E0E0"/>
<path d="M167.68 286.74H136.46V283L167.68 281V286.74Z" fill="#E0E0E0"/>
<path d="M213.84 290.55H121.51V303.33H213.84V290.55Z" fill="#F0F0F0"/>
<path d="M232.98 286.74H102.7V294.36H232.98V286.74Z" fill="#FAFAFA"/>
<path d="M220.88 382.65H226.76L216.58 294.36H209.68L220.88 382.65Z" fill="#E6E6E6"/>
<path d="M126 294.36H119.1L108.91 382.65H114.8L126 294.36Z" fill="#E6E6E6"/>
<path d="M199.29 284.84C196.623 271.6 193.957 258.353 191.29 245.1C190.91 243.21 188.01 244.01 188.39 245.9L196 283.74H179.5C179.102 283.74 178.721 283.898 178.439 284.179C178.158 284.461 178 284.842 178 285.24C178 285.638 178.158 286.019 178.439 286.301C178.721 286.582 179.102 286.74 179.5 286.74H197.83C198.061 286.738 198.289 286.684 198.495 286.581C198.702 286.478 198.883 286.329 199.024 286.146C199.164 285.963 199.261 285.75 199.308 285.524C199.354 285.297 199.348 285.064 199.29 284.84Z" fill="#E0E0E0"/>
<path d="M180.61 274.18L185.75 200.7C187.648 202.055 189.167 203.874 190.16 205.984C191.152 208.094 191.586 210.424 191.42 212.75L187.91 263C187.753 265.333 187 267.587 185.722 269.544C184.443 271.502 182.683 273.098 180.61 274.18Z" fill="#FAFAFA"/>
<path d="M220.66 265.38H212.3C210.698 265.38 209.4 266.678 209.4 268.28V283.84C209.4 285.442 210.698 286.74 212.3 286.74H220.66C222.262 286.74 223.56 285.442 223.56 283.84V268.28C223.56 266.678 222.262 265.38 220.66 265.38Z" fill="#F5F5F5"/>
<path d="M215 257.43C212.79 257.43 211 257.98 211 258.65C211 259.32 212.8 258.41 215 258.41C215.283 258.395 215.567 258.395 215.85 258.41V263.25H217.11V258.6C218.25 258.81 219.01 259.04 219.01 258.6C219 258 217.21 257.43 215 257.43Z" fill="#E0E0E0"/>
<path d="M218.74 261.73H214.23V266.24H218.74V261.73Z" fill="#F0F0F0"/>
<path d="M282.95 303.34H375.28V290.56H282.95V303.34Z" fill="#F0F0F0"/>
<path d="M263.81 294.37H394.09V286.75H263.81V294.37Z" fill="#FAFAFA"/>
<path d="M275.91 382.65H270.02L280.2 294.36H287.1L275.91 382.65Z" fill="#E6E6E6"/>
<path d="M370.79 294.36H377.69L387.87 382.65H381.98L370.79 294.36Z" fill="#E6E6E6"/>
<path d="M348.63 286.74H379.84V283L348.63 281V286.74Z" fill="#263238"/>
<path opacity="0.6" d="M348.63 286.74H379.84V283L348.63 281V286.74Z" fill="white"/>
<path d="M285.84 219.67V286.74H290.18L291.18 280.79C291.362 279.737 291.91 278.781 292.728 278.093C293.546 277.405 294.581 277.029 295.65 277.03H336C337.069 277.029 338.104 277.405 338.922 278.093C339.74 278.781 340.288 279.737 340.47 280.79L341.47 286.74H345.8V219.67H285.84Z" fill="#FAFAFA"/>
<path d="M305.25 284.84C307.917 271.6 310.583 258.353 313.25 245.1C313.63 243.21 316.52 244.01 316.14 245.9L308.52 283.74H325C325.398 283.74 325.779 283.898 326.061 284.179C326.342 284.461 326.5 284.842 326.5 285.24C326.5 285.638 326.342 286.019 326.061 286.301C325.779 286.582 325.398 286.74 325 286.74H306.69C306.461 286.735 306.235 286.679 306.031 286.574C305.827 286.47 305.649 286.321 305.51 286.138C305.372 285.956 305.276 285.744 305.231 285.519C305.186 285.294 305.193 285.062 305.25 284.84Z" fill="#E0E0E0"/>
<path d="M323.92 274.18L318.78 200.7C316.884 202.057 315.367 203.876 314.374 205.986C313.382 208.096 312.946 210.424 313.11 212.75L316.62 263C316.778 265.332 317.533 267.585 318.811 269.543C320.089 271.5 321.848 273.097 323.92 274.18Z" fill="#E0E0E0"/>
<path d="M245.49 74.85H239.46V106.33L245.49 106.31V74.85Z" fill="#EBEBEB"/>
<path d="M227.71 81.38V106.29C227.931 106.33 228.155 106.35 228.38 106.35H233.74V81.35L227.71 81.38Z" fill="#E6E6E6"/>
<path d="M263.86 71.58V106.28H269.24C269.458 106.276 269.675 106.256 269.89 106.22V71.58H263.86Z" fill="#F0F0F0"/>
<path d="M257.84 87.8H251.81V106.3L257.84 106.29V87.8Z" fill="#E0E0E0"/>
<path d="M71.82 140.63V164.52L80.68 186.71C85.607 184.465 89.6363 180.629 92.1204 175.818C94.6046 171.008 95.3993 165.502 94.377 160.185C93.3547 154.868 90.5747 150.049 86.4837 146.502C82.3926 142.956 77.2281 140.888 71.82 140.63Z" fill="#E0E0E0"/>
<path d="M69.73 164.22V140.63C63.7226 140.915 58.0553 143.501 53.9034 147.853C49.7515 152.204 47.4335 157.986 47.43 164C47.43 164.293 47.43 164.583 47.43 164.87C47.43 165.17 47.43 165.46 47.43 165.76C47.4268 169.491 48.3164 173.169 50.0245 176.487C51.7326 179.804 54.2096 182.665 57.2486 184.83C60.2877 186.995 63.8006 188.402 67.4941 188.932C71.1876 189.463 74.9544 189.102 78.48 187.88L69.73 164.22Z" fill="#F0F0F0"/>
<path d="M245.18 423.71C352.262 423.71 439.07 418.642 439.07 412.39C439.07 406.138 352.262 401.07 245.18 401.07C138.098 401.07 51.29 406.138 51.29 412.39C51.29 418.642 138.098 423.71 245.18 423.71Z" fill="#F5F5F5"/>
<path d="M224.68 407.12L243.4 388.4L262.12 407.12C262.604 407.601 263.258 407.87 263.94 407.87C264.449 407.871 264.947 407.721 265.371 407.439C265.794 407.156 266.125 406.755 266.32 406.284C266.515 405.814 266.565 405.296 266.466 404.797C266.366 404.298 266.121 403.839 265.76 403.48L243.4 381.12L221 403.48C220.639 403.839 220.394 404.298 220.294 404.797C220.195 405.296 220.246 405.814 220.44 406.284C220.635 406.755 220.966 407.156 221.389 407.439C221.813 407.721 222.311 407.871 222.82 407.87C223.164 407.875 223.506 407.812 223.826 407.683C224.145 407.554 224.436 407.363 224.68 407.12Z" fill="#407BFF"/>
<path opacity="0.2" d="M244.03 381.76H242.77L237.03 387.49V394.5H237.3L243.4 388.4L249.5 394.5H249.77V387.49L244.03 381.76Z" fill="black"/>
<path d="M239.57 323.37H247.23V404.87C247.23 405.666 246.914 406.429 246.351 406.991C245.789 407.554 245.026 407.87 244.23 407.87H242.57C241.774 407.87 241.011 407.554 240.449 406.991C239.886 406.429 239.57 405.666 239.57 404.87V323.37Z" fill="#407BFF"/>
<path opacity="0.2" d="M247.23 323.37H239.57V353.4H247.23V323.37Z" fill="black"/>
<path d="M379.74 342.63H107.06C104.368 342.625 101.788 341.552 99.8852 339.648C97.9825 337.743 96.9126 335.162 96.91 332.47V120.93H389.91V332.47C389.907 335.166 388.835 337.75 386.928 339.655C385.021 341.56 382.436 342.63 379.74 342.63ZM100.34 124.36V332.47C100.34 334.253 101.048 335.963 102.308 337.225C103.568 338.487 105.277 339.197 107.06 339.2H379.74C381.523 339.197 383.232 338.487 384.492 337.225C385.752 335.963 386.46 334.253 386.46 332.47V124.36H100.34Z" fill="#407BFF"/>
<g opacity="0.8">
<path opacity="0.8" d="M379.74 342.63H107.06C104.368 342.625 101.788 341.552 99.8852 339.648C97.9825 337.743 96.9126 335.162 96.91 332.47V120.93H389.91V332.47C389.907 335.166 388.835 337.75 386.928 339.655C385.021 341.56 382.436 342.63 379.74 342.63ZM100.34 124.36V332.47C100.34 334.253 101.048 335.963 102.308 337.225C103.568 338.487 105.277 339.197 107.06 339.2H379.74C381.523 339.197 383.232 338.487 384.492 337.225C385.752 335.963 386.46 334.253 386.46 332.47V124.36H100.34Z" fill="white"/>
</g>
<path d="M100.34 124.36V332.47C100.34 334.253 101.048 335.964 102.308 337.225C103.568 338.487 105.277 339.197 107.06 339.2H379.74C381.523 339.197 383.232 338.487 384.492 337.225C385.752 335.964 386.46 334.253 386.46 332.47V124.36H100.34Z" fill="white"/>
<path d="M396.51 118.79H90.29V126.51H396.51V118.79Z" fill="#407BFF"/>
<path opacity="0.5" d="M396.51 118.79H90.29V122.65H396.51V118.79Z" fill="white"/>
<path d="M127.54 302.3C127.54 302.3 298.19 299.12 350.75 150.4L348.94 302.64L127.54 302.3Z" fill="#407BFF"/>
<g opacity="0.7">
<path opacity="0.7" d="M127.54 302.3C127.54 302.3 298.19 299.12 350.75 150.4L348.94 302.64L127.54 302.3Z" fill="white"/>
</g>
<path d="M128.86 303.16C128.595 303.167 128.338 303.068 128.146 302.885C127.953 302.702 127.842 302.45 127.835 302.185C127.828 301.92 127.927 301.663 128.11 301.471C128.293 301.278 128.545 301.167 128.81 301.16C137.09 300.77 180.72 297.78 227.7 277.3C287.7 251.12 328.62 208.3 349.22 150C349.323 149.772 349.508 149.591 349.738 149.492C349.968 149.394 350.226 149.385 350.463 149.468C350.699 149.551 350.895 149.719 351.013 149.94C351.131 150.161 351.162 150.418 351.1 150.66C339.75 182.81 321.93 210.66 298.1 233.49C278.72 252.08 255.29 267.43 228.46 279.13C181.16 299.76 137.2 302.77 128.87 303.13L128.86 303.16Z" fill="#407BFF"/>
<path d="M137.76 312.52C137.495 312.52 137.24 312.415 137.053 312.227C136.865 312.04 136.76 311.785 136.76 311.52V303.21C136.76 302.945 136.865 302.69 137.053 302.503C137.24 302.315 137.495 302.21 137.76 302.21C138.025 302.21 138.28 302.315 138.467 302.503C138.655 302.69 138.76 302.945 138.76 303.21V311.52C138.76 311.785 138.655 312.04 138.467 312.227C138.28 312.415 138.025 312.52 137.76 312.52Z" fill="#407BFF"/>
<path d="M172.47 312.56C172.205 312.56 171.95 312.455 171.763 312.267C171.575 312.08 171.47 311.825 171.47 311.56V303.25C171.47 302.985 171.575 302.73 171.763 302.543C171.95 302.355 172.205 302.25 172.47 302.25C172.735 302.25 172.99 302.355 173.177 302.543C173.365 302.73 173.47 302.985 173.47 303.25V311.56C173.47 311.825 173.365 312.08 173.177 312.267C172.99 312.455 172.735 312.56 172.47 312.56Z" fill="#407BFF"/>
<path d="M207.18 312.59C206.915 312.59 206.66 312.485 206.473 312.297C206.285 312.11 206.18 311.855 206.18 311.59V303.28C206.18 303.015 206.285 302.76 206.473 302.573C206.66 302.385 206.915 302.28 207.18 302.28C207.445 302.28 207.7 302.385 207.887 302.573C208.075 302.76 208.18 303.015 208.18 303.28V311.59C208.18 311.855 208.075 312.11 207.887 312.297C207.7 312.485 207.445 312.59 207.18 312.59Z" fill="#407BFF"/>
<path d="M241.89 312.62C241.625 312.62 241.37 312.515 241.183 312.327C240.995 312.14 240.89 311.885 240.89 311.62V303.31C240.89 303.045 240.995 302.79 241.183 302.603C241.37 302.415 241.625 302.31 241.89 302.31C242.155 302.31 242.41 302.415 242.597 302.603C242.785 302.79 242.89 303.045 242.89 303.31V311.62C242.89 311.885 242.785 312.14 242.597 312.327C242.41 312.515 242.155 312.62 241.89 312.62Z" fill="#407BFF"/>
<path d="M276.6 312.65C276.335 312.65 276.08 312.545 275.893 312.357C275.705 312.17 275.6 311.915 275.6 311.65V303.35C275.6 303.085 275.705 302.83 275.893 302.643C276.08 302.455 276.335 302.35 276.6 302.35C276.865 302.35 277.12 302.455 277.307 302.643C277.495 302.83 277.6 303.085 277.6 303.35V311.65C277.6 311.915 277.495 312.17 277.307 312.357C277.12 312.545 276.865 312.65 276.6 312.65Z" fill="#407BFF"/>
<path d="M311.3 312.69C311.035 312.69 310.78 312.585 310.593 312.397C310.405 312.21 310.3 311.955 310.3 311.69V303.38C310.3 303.115 310.405 302.86 310.593 302.673C310.78 302.485 311.035 302.38 311.3 302.38C311.565 302.38 311.82 302.485 312.007 302.673C312.195 302.86 312.3 303.115 312.3 303.38V311.69C312.3 311.955 312.195 312.21 312.007 312.397C311.82 312.585 311.565 312.69 311.3 312.69Z" fill="#407BFF"/>
<path d="M346 312.72C345.735 312.72 345.48 312.615 345.293 312.427C345.105 312.24 345 311.985 345 311.72V303.41C345 303.145 345.105 302.89 345.293 302.703C345.48 302.515 345.735 302.41 346 302.41C346.265 302.41 346.52 302.515 346.707 302.703C346.895 302.89 347 303.145 347 303.41V311.72C347 311.985 346.895 312.24 346.707 312.427C346.52 312.615 346.265 312.72 346 312.72Z" fill="#407BFF"/>
<path d="M128 159.65H123.52C123.255 159.65 123 159.545 122.813 159.357C122.625 159.17 122.52 158.915 122.52 158.65C122.52 158.385 122.625 158.13 122.813 157.943C123 157.755 123.255 157.65 123.52 157.65H128C128.265 157.65 128.52 157.755 128.707 157.943C128.895 158.13 129 158.385 129 158.65C129 158.915 128.895 159.17 128.707 159.357C128.52 159.545 128.265 159.65 128 159.65Z" fill="#407BFF"/>
<path d="M128 181.42H123.52C123.255 181.42 123 181.315 122.813 181.127C122.625 180.94 122.52 180.685 122.52 180.42C122.52 180.155 122.625 179.9 122.813 179.713C123 179.525 123.255 179.42 123.52 179.42H128C128.265 179.42 128.52 179.525 128.707 179.713C128.895 179.9 129 180.155 129 180.42C129 180.685 128.895 180.94 128.707 181.127C128.52 181.315 128.265 181.42 128 181.42Z" fill="#407BFF"/>
<path d="M128 203.2H123.52C123.255 203.2 123 203.095 122.813 202.907C122.625 202.72 122.52 202.465 122.52 202.2C122.52 201.935 122.625 201.68 122.813 201.493C123 201.305 123.255 201.2 123.52 201.2H128C128.265 201.2 128.52 201.305 128.707 201.493C128.895 201.68 129 201.935 129 202.2C129 202.465 128.895 202.72 128.707 202.907C128.52 203.095 128.265 203.2 128 203.2Z" fill="#407BFF"/>
<path d="M128 225H123.52C123.255 225 123 224.895 122.813 224.707C122.625 224.52 122.52 224.265 122.52 224C122.52 223.735 122.625 223.48 122.813 223.293C123 223.105 123.255 223 123.52 223H128C128.265 223 128.52 223.105 128.707 223.293C128.895 223.48 129 223.735 129 224C129 224.265 128.895 224.52 128.707 224.707C128.52 224.895 128.265 225 128 225Z" fill="#407BFF"/>
<path d="M128 246.75H123.52C123.255 246.75 123 246.645 122.813 246.457C122.625 246.27 122.52 246.015 122.52 245.75C122.52 245.485 122.625 245.23 122.813 245.043C123 244.855 123.255 244.75 123.52 244.75H128C128.265 244.75 128.52 244.855 128.707 245.043C128.895 245.23 129 245.485 129 245.75C129 246.015 128.895 246.27 128.707 246.457C128.52 246.645 128.265 246.75 128 246.75Z" fill="#407BFF"/>
<path d="M128 268.53H123.52C123.255 268.53 123 268.425 122.813 268.237C122.625 268.05 122.52 267.795 122.52 267.53C122.52 267.265 122.625 267.01 122.813 266.823C123 266.635 123.255 266.53 123.52 266.53H128C128.265 266.53 128.52 266.635 128.707 266.823C128.895 267.01 129 267.265 129 267.53C129 267.795 128.895 268.05 128.707 268.237C128.52 268.425 128.265 268.53 128 268.53Z" fill="#407BFF"/>
<path d="M128 290.3H123.52C123.255 290.3 123 290.195 122.813 290.007C122.625 289.82 122.52 289.565 122.52 289.3C122.52 289.035 122.625 288.78 122.813 288.593C123 288.405 123.255 288.3 123.52 288.3H128C128.265 288.3 128.52 288.405 128.707 288.593C128.895 288.78 129 289.035 129 289.3C129 289.565 128.895 289.82 128.707 290.007C128.52 290.195 128.265 290.3 128 290.3Z" fill="#407BFF"/>
<path d="M357.4 304.21H128.86C128.595 304.21 128.34 304.105 128.153 303.917C127.965 303.73 127.86 303.475 127.86 303.21V150.05C127.86 149.785 127.965 149.53 128.153 149.343C128.34 149.155 128.595 149.05 128.86 149.05C129.125 149.05 129.38 149.155 129.567 149.343C129.755 149.53 129.86 149.785 129.86 150.05V302.21H357.4C357.665 302.21 357.92 302.315 358.107 302.503C358.295 302.69 358.4 302.945 358.4 303.21C358.4 303.475 358.295 303.73 358.107 303.917C357.92 304.105 357.665 304.21 357.4 304.21Z" fill="#407BFF"/>
<path d="M190 153.91V156.46L182 174.41H178L185.7 157.13H177.64V160.62H174.1V153.91H190Z" fill="#407BFF"/>
<path d="M191.8 164.16C191.8 157.42 195.49 153.61 200.36 153.61C205.23 153.61 208.94 157.42 208.94 164.16C208.94 170.9 205.25 174.7 200.36 174.7C195.47 174.7 191.8 170.9 191.8 164.16ZM205.1 164.16C205.1 159.21 203.17 156.92 200.36 156.92C197.55 156.92 195.64 159.21 195.64 164.16C195.64 169.11 197.57 171.39 200.36 171.39C203.15 171.39 205.1 169.11 205.1 164.16Z" fill="#407BFF"/>
<path d="M211.2 159.33C211.2 155.96 213.2 153.7 216.09 153.7C218.98 153.7 221.01 155.93 221.01 159.33C221.01 162.73 219.01 164.95 216.09 164.95C213.17 164.95 211.2 162.7 211.2 159.33ZM218.61 159.33C218.61 157.04 217.67 155.75 216.09 155.75C214.51 155.75 213.57 157.07 213.57 159.33C213.57 161.59 214.57 162.9 216.09 162.9C217.61 162.9 218.61 161.61 218.61 159.33ZM228.39 153.91H231.26L217.26 174.41H214.39L228.39 153.91ZM224.64 169C224.64 165.63 226.64 163.38 229.53 163.38C232.42 163.38 234.45 165.63 234.45 169C234.45 172.37 232.45 174.63 229.53 174.63C226.61 174.63 224.64 172.36 224.64 169ZM232.05 169C232.05 166.75 231.05 165.43 229.53 165.43C228.01 165.43 227 166.71 227 169C227 171.29 228 172.58 229.52 172.58C231.04 172.58 232.05 171.25 232.05 169Z" fill="#407BFF"/>
<path d="M228.23 179.91H181.97V183.13H228.23V179.91Z" fill="#407BFF"/>
<path d="M228.23 187.66H174.22V190.88H228.23V187.66Z" fill="#407BFF"/>
<path d="M228.23 195.21H174.22V198.43H228.23V195.21Z" fill="#407BFF"/>
<path d="M216.3 202.76H174.22V205.98H216.3V202.76Z" fill="#407BFF"/>
<path d="M397.31 322.93C397.31 322.93 404.59 338.61 405.04 372.33H409.99C409.99 372.33 405.89 321.51 396.47 317.87C391.44 316 397.31 322.93 397.31 322.93Z" fill="#407BFF"/>
<g opacity="0.1">
<path opacity="0.1" d="M397.31 322.93C397.31 322.93 404.59 338.61 405.04 372.33H409.99C409.99 372.33 405.89 321.51 396.47 317.87C391.44 316 397.31 322.93 397.31 322.93Z" fill="black"/>
</g>
<path d="M394.41 317.9C395.41 314.9 395.92 314.95 397.71 312.98C395.05 312.54 391.82 311.19 387.47 312.92C383.65 314.72 382.22 318.92 382.96 323.02C382.991 323.169 382.989 323.324 382.955 323.472C382.92 323.621 382.854 323.76 382.76 323.88C382.654 324.011 382.518 324.116 382.364 324.185C382.209 324.254 382.041 324.285 381.872 324.276C381.703 324.267 381.539 324.219 381.393 324.134C381.246 324.05 381.122 323.932 381.03 323.79C380.195 322.434 379.715 320.89 379.633 319.3C379.551 317.71 379.869 316.125 380.56 314.69C377.15 315.77 373.22 317.55 371.12 320.45C368.82 323.62 369.59 331.09 372.28 334.21C372.391 334.343 372.453 334.511 372.453 334.685C372.453 334.859 372.391 335.027 372.28 335.16C372.218 335.244 372.139 335.314 372.048 335.365C371.957 335.416 371.856 335.447 371.752 335.456C371.649 335.466 371.544 335.453 371.445 335.419C371.347 335.386 371.256 335.331 371.18 335.26C369.821 334.209 368.712 332.87 367.93 331.34C367.11 329.56 366.74 327.46 367.79 325.81C363.45 326.47 359.79 335.65 360.23 335.55C360.84 338.8 363.77 341.76 365.23 343.07C365.481 343.296 365.646 343.601 365.697 343.935C365.748 344.269 365.682 344.61 365.51 344.9C365.402 345.081 365.256 345.237 365.083 345.358C364.909 345.478 364.712 345.559 364.504 345.596C364.296 345.633 364.083 345.625 363.879 345.572C363.674 345.519 363.484 345.423 363.32 345.29C361.76 344.02 359.4 341.86 358.74 340.02C357.3 341.02 357.35 343.47 357.38 345.23C357.46 350.85 361.69 354.92 365.02 359.04C369.333 360.621 374.001 360.968 378.5 360.04C381.769 359.272 384.615 357.269 386.44 354.45V354.38C383.38 353.71 380 352.84 376.88 352.13C376.59 352.067 376.334 351.898 376.164 351.655C375.993 351.412 375.921 351.114 375.96 350.82C376.007 350.516 376.17 350.243 376.414 350.057C376.658 349.87 376.965 349.785 377.27 349.82C381.38 350.31 384.57 351.24 388.79 351.68C391.07 349.68 394.73 342.22 394.06 342.42C390.45 342.2 384.32 342.62 380.91 341.12C380.674 341.005 380.493 340.803 380.405 340.556C380.317 340.309 380.33 340.038 380.44 339.8C380.538 339.627 380.685 339.486 380.864 339.397C381.042 339.308 381.242 339.274 381.44 339.3C386.054 340.213 390.791 340.315 395.44 339.6C398.19 335.87 400.17 332.99 400.49 330.21L389.6 329.21C389.369 329.196 389.152 329.097 388.99 328.932C388.828 328.767 388.734 328.548 388.725 328.317C388.717 328.086 388.794 327.86 388.943 327.683C389.092 327.506 389.301 327.391 389.53 327.36H389.59C394.03 326.84 399.24 328.43 402.8 325.9C402.8 325.9 407.51 321.33 405.93 318.66C402.22 320.71 394 319.25 394.41 317.9Z" fill="#407BFF"/>
<path d="M412.85 324.34C409.575 330.146 407.153 336.393 405.66 342.89C400.66 365.4 400.79 372.04 400.79 372.04L396.61 372.18C396.61 372.18 404.75 329.08 411.46 323.02C418.17 316.96 412.85 324.34 412.85 324.34Z" fill="#407BFF"/>
<path opacity="0.4" d="M412.85 324.34C409.575 330.146 407.153 336.393 405.66 342.89C400.66 365.4 400.79 372.04 400.79 372.04L396.61 372.18C396.61 372.18 404.75 329.08 411.46 323.02C418.17 316.96 412.85 324.34 412.85 324.34Z" fill="black"/>
<path d="M414.41 319.63C412.9 318.44 412.65 318.63 411.05 318.16C412.35 317.16 413.67 315.58 416.58 315.16C417.794 315.075 419.002 315.387 420.023 316.049C421.044 316.711 421.822 317.687 422.24 318.83C422.277 318.914 422.33 318.989 422.397 319.051C422.464 319.113 422.544 319.16 422.63 319.19C422.724 319.228 422.826 319.243 422.927 319.235C423.029 319.226 423.127 319.195 423.214 319.143C423.301 319.09 423.375 319.019 423.429 318.933C423.484 318.848 423.519 318.751 423.53 318.65C423.537 317.717 423.296 316.799 422.832 315.989C422.368 315.179 421.698 314.507 420.89 314.04C423.08 313.59 425.78 313.33 427.89 314.14C430.15 315.04 432.11 318.93 431.65 321.25C431.631 321.349 431.648 321.452 431.7 321.539C431.752 321.625 431.834 321.69 431.93 321.72C432.049 321.766 432.182 321.764 432.3 321.713C432.418 321.663 432.511 321.568 432.56 321.45C432.964 320.55 433.143 319.565 433.08 318.58C433.062 318.013 432.897 317.46 432.6 316.976C432.304 316.492 431.887 316.094 431.39 315.82C433.95 314.9 438.87 318.35 438.59 318.43C439.3 320.21 438.65 322.51 438.27 323.57C438.203 323.761 438.211 323.971 438.293 324.157C438.374 324.342 438.524 324.49 438.71 324.57C438.823 324.631 438.948 324.668 439.076 324.678C439.205 324.689 439.334 324.673 439.455 324.632C439.577 324.591 439.689 324.525 439.785 324.438C439.88 324.352 439.957 324.247 440.01 324.13C440.599 322.914 440.878 321.57 440.82 320.22C441.92 320.3 442.67 321.51 443.22 322.38C444.96 325.17 443.97 328.38 443.48 331.38C441.579 333.436 439.162 334.945 436.48 335.75C434.458 336.311 432.304 336.148 430.39 335.29C431.83 334.08 433.39 332.67 434.86 331.42C434.926 331.366 434.981 331.299 435.02 331.224C435.06 331.148 435.084 331.065 435.09 330.98C435.097 330.895 435.086 330.809 435.058 330.729C435.031 330.648 434.987 330.573 434.93 330.51C434.802 330.378 434.633 330.295 434.451 330.273C434.269 330.251 434.085 330.292 433.93 330.39C431.86 331.82 430.43 333.2 428.28 334.63C426.39 334.3 422.04 331.7 422.47 331.63C424.36 330.48 427.81 328.92 429.19 327.19C429.237 327.13 429.27 327.06 429.286 326.986C429.303 326.912 429.304 326.835 429.287 326.76C429.271 326.686 429.239 326.616 429.193 326.555C429.146 326.495 429.087 326.445 429.02 326.41C428.91 326.346 428.784 326.316 428.657 326.325C428.531 326.334 428.41 326.381 428.31 326.46C426.058 328.262 423.524 329.681 420.81 330.66C418.13 329.66 416.14 328.77 415.08 327.5L420.65 323.84C420.711 323.804 420.764 323.756 420.807 323.699C420.85 323.643 420.881 323.578 420.898 323.509C420.916 323.441 420.92 323.369 420.91 323.299C420.9 323.229 420.876 323.161 420.84 323.1C420.804 323.039 420.756 322.986 420.699 322.943C420.643 322.9 420.578 322.869 420.509 322.852C420.441 322.834 420.369 322.83 420.299 322.84C420.229 322.85 420.161 322.874 420.1 322.91C417.52 323.91 415.2 326.23 412.47 326.01C412.47 326.01 408.47 325.13 408.47 323.36C411.07 323.27 415.08 320.16 414.41 319.63Z" fill="#407BFF"/>
<path opacity="0.2" d="M414.41 319.63C412.9 318.44 412.65 318.63 411.05 318.16C412.35 317.16 413.67 315.58 416.58 315.16C417.794 315.075 419.002 315.387 420.023 316.049C421.044 316.711 421.822 317.687 422.24 318.83C422.277 318.914 422.33 318.989 422.397 319.051C422.464 319.113 422.544 319.16 422.63 319.19C422.724 319.228 422.826 319.243 422.927 319.235C423.029 319.226 423.127 319.195 423.214 319.143C423.301 319.09 423.375 319.019 423.429 318.933C423.484 318.848 423.519 318.751 423.53 318.65C423.537 317.717 423.296 316.799 422.832 315.989C422.368 315.179 421.698 314.507 420.89 314.04C423.08 313.59 425.78 313.33 427.89 314.14C430.15 315.04 432.11 318.93 431.65 321.25C431.631 321.349 431.648 321.452 431.7 321.539C431.752 321.625 431.834 321.69 431.93 321.72C432.049 321.766 432.182 321.764 432.3 321.713C432.418 321.663 432.511 321.568 432.56 321.45C432.964 320.55 433.143 319.565 433.08 318.58C433.062 318.013 432.897 317.46 432.6 316.976C432.304 316.492 431.887 316.094 431.39 315.82C433.95 314.9 438.87 318.35 438.59 318.43C439.3 320.21 438.65 322.51 438.27 323.57C438.203 323.761 438.211 323.971 438.293 324.157C438.374 324.342 438.524 324.49 438.71 324.57C438.823 324.631 438.948 324.668 439.076 324.678C439.205 324.689 439.334 324.673 439.455 324.632C439.577 324.591 439.689 324.525 439.785 324.438C439.88 324.352 439.957 324.247 440.01 324.13C440.599 322.914 440.878 321.57 440.82 320.22C441.92 320.3 442.67 321.51 443.22 322.38C444.96 325.17 443.97 328.38 443.48 331.38C441.579 333.436 439.162 334.945 436.48 335.75C434.458 336.311 432.304 336.148 430.39 335.29C431.83 334.08 433.39 332.67 434.86 331.42C434.926 331.366 434.981 331.299 435.02 331.224C435.06 331.148 435.084 331.065 435.09 330.98C435.097 330.895 435.086 330.809 435.058 330.729C435.031 330.648 434.987 330.573 434.93 330.51C434.802 330.378 434.633 330.295 434.451 330.273C434.269 330.251 434.085 330.292 433.93 330.39C431.86 331.82 430.43 333.2 428.28 334.63C426.39 334.3 422.04 331.7 422.47 331.63C424.36 330.48 427.81 328.92 429.19 327.19C429.237 327.13 429.27 327.06 429.286 326.986C429.303 326.912 429.304 326.835 429.287 326.76C429.271 326.686 429.239 326.616 429.193 326.555C429.146 326.495 429.087 326.445 429.02 326.41C428.91 326.346 428.784 326.316 428.657 326.325C428.531 326.334 428.41 326.381 428.31 326.46C426.058 328.262 423.524 329.681 420.81 330.66C418.13 329.66 416.14 328.77 415.08 327.5L420.65 323.84C420.711 323.804 420.764 323.756 420.807 323.699C420.85 323.643 420.881 323.578 420.898 323.509C420.916 323.441 420.92 323.369 420.91 323.299C420.9 323.229 420.876 323.161 420.84 323.1C420.804 323.039 420.756 322.986 420.699 322.943C420.643 322.9 420.578 322.869 420.509 322.852C420.441 322.834 420.369 322.83 420.299 322.84C420.229 322.85 420.161 322.874 420.1 322.91C417.52 323.91 415.2 326.23 412.47 326.01C412.47 326.01 408.47 325.13 408.47 323.36C411.07 323.27 415.08 320.16 414.41 319.63Z" fill="white"/>
<path d="M409.26 331.92C409.26 331.92 401.1 343.81 398.9 355C396.7 366.19 396.52 371 396.52 371L391.57 371.05C391.57 371.05 400.33 337.05 407.86 330.33C415.39 323.61 409.26 331.92 409.26 331.92Z" fill="#407BFF"/>
<path opacity="0.2" d="M409.26 331.92C409.26 331.92 401.1 343.81 398.9 355C396.7 366.19 396.52 371 396.52 371L391.57 371.05C391.57 371.05 400.33 337.05 407.86 330.33C415.39 323.61 409.26 331.92 409.26 331.92Z" fill="black"/>
<path d="M409.58 330.87C409.08 328.29 408.66 328.29 407.41 326.48C409.63 326.41 412.41 325.65 415.8 327.54C418.73 329.43 419.45 333 418.39 336.3C418.351 336.42 418.337 336.548 418.351 336.674C418.365 336.8 418.406 336.921 418.47 337.03C418.543 337.148 418.642 337.248 418.761 337.32C418.879 337.393 419.013 337.436 419.152 337.447C419.29 337.458 419.43 337.435 419.558 337.382C419.686 337.329 419.8 337.246 419.89 337.14C420.72 336.122 421.28 334.912 421.52 333.62C421.759 332.329 421.67 330.998 421.26 329.75C423.93 331.01 426.96 332.88 428.36 335.48C429.9 338.33 428.46 344.36 425.92 346.62C425.812 346.713 425.739 346.841 425.716 346.981C425.692 347.122 425.718 347.267 425.79 347.39C425.832 347.464 425.889 347.528 425.957 347.579C426.024 347.63 426.102 347.666 426.185 347.686C426.267 347.705 426.353 347.708 426.436 347.693C426.52 347.678 426.599 347.647 426.67 347.6C427.898 346.886 428.954 345.91 429.76 344.74C430.244 344.107 430.564 343.363 430.689 342.576C430.815 341.789 430.743 340.983 430.48 340.23C433.95 341.23 435.97 349.15 435.61 349.02C434.75 351.61 432.04 353.72 430.69 354.63C430.46 354.788 430.292 355.021 430.216 355.289C430.139 355.558 430.158 355.844 430.27 356.1C430.339 356.26 430.441 356.403 430.571 356.52C430.7 356.637 430.853 356.724 431.019 356.776C431.185 356.829 431.36 356.844 431.533 356.823C431.706 356.801 431.872 356.742 432.02 356.65C433.43 355.78 435.6 354.27 436.34 352.83C437.41 353.83 437.1 355.83 436.89 357.24C436.21 361.83 432.31 364.71 429.14 367.72C425.437 368.542 421.578 368.31 418 367.05C415.408 366.071 413.296 364.124 412.11 361.62V361.55C414.69 361.33 417.55 361 420.18 360.75C420.426 360.723 420.653 360.606 420.817 360.421C420.981 360.236 421.072 359.997 421.07 359.75C421.07 359.485 420.965 359.23 420.777 359.043C420.59 358.855 420.335 358.75 420.07 358.75C416.65 358.7 413.94 359.12 410.44 359.02C408.79 357.11 406.6 350.63 407.12 350.86C410.12 351.08 415.12 352.09 418.03 351.23C418.13 351.199 418.224 351.149 418.305 351.082C418.386 351.015 418.453 350.933 418.502 350.84C418.551 350.747 418.582 350.645 418.592 350.541C418.602 350.436 418.591 350.33 418.56 350.23C418.504 350.071 418.398 349.934 418.257 349.84C418.116 349.746 417.949 349.7 417.78 349.71C413.902 349.954 410.011 349.525 406.28 348.44C404.43 345.09 403.12 342.52 403.16 340.2L412.16 340.53C412.343 340.531 412.521 340.467 412.661 340.349C412.801 340.231 412.895 340.067 412.925 339.887C412.955 339.706 412.919 339.521 412.825 339.364C412.731 339.207 412.584 339.088 412.41 339.03C408.83 338.11 404.41 338.86 401.76 336.39C401.76 336.39 398.39 332.15 399.98 330.13C402.88 332.32 409.81 332 409.58 330.87Z" fill="#407BFF"/>
<path opacity="0.1" d="M409.58 330.87C409.08 328.29 408.66 328.29 407.41 326.48C409.63 326.41 412.41 325.65 415.8 327.54C418.73 329.43 419.45 333 418.39 336.3C418.351 336.42 418.337 336.548 418.351 336.674C418.365 336.8 418.406 336.921 418.47 337.03C418.543 337.148 418.642 337.248 418.761 337.32C418.879 337.393 419.013 337.436 419.152 337.447C419.29 337.458 419.43 337.435 419.558 337.382C419.686 337.329 419.8 337.246 419.89 337.14C420.72 336.122 421.28 334.912 421.52 333.62C421.759 332.329 421.67 330.998 421.26 329.75C423.93 331.01 426.96 332.88 428.36 335.48C429.9 338.33 428.46 344.36 425.92 346.62C425.812 346.713 425.739 346.841 425.716 346.981C425.692 347.122 425.718 347.267 425.79 347.39C425.832 347.464 425.889 347.528 425.957 347.579C426.024 347.63 426.102 347.666 426.185 347.686C426.267 347.705 426.353 347.708 426.436 347.693C426.52 347.678 426.599 347.647 426.67 347.6C427.898 346.886 428.954 345.91 429.76 344.74C430.244 344.107 430.564 343.363 430.689 342.576C430.815 341.789 430.743 340.983 430.48 340.23C433.95 341.23 435.97 349.15 435.61 349.02C434.75 351.61 432.04 353.72 430.69 354.63C430.46 354.788 430.292 355.021 430.216 355.289C430.139 355.558 430.158 355.844 430.27 356.1C430.339 356.26 430.441 356.403 430.571 356.52C430.7 356.637 430.853 356.724 431.019 356.776C431.185 356.829 431.36 356.844 431.533 356.823C431.706 356.801 431.872 356.742 432.02 356.65C433.43 355.78 435.6 354.27 436.34 352.83C437.41 353.83 437.1 355.83 436.89 357.24C436.21 361.83 432.31 364.71 429.14 367.72C425.437 368.542 421.578 368.31 418 367.05C415.408 366.071 413.296 364.124 412.11 361.62V361.55C414.69 361.33 417.55 361 420.18 360.75C420.426 360.723 420.653 360.606 420.817 360.421C420.981 360.236 421.072 359.997 421.07 359.75C421.07 359.485 420.965 359.23 420.777 359.043C420.59 358.855 420.335 358.75 420.07 358.75C416.65 358.7 413.94 359.12 410.44 359.02C408.79 357.11 406.6 350.63 407.12 350.86C410.12 351.08 415.12 352.09 418.03 351.23C418.13 351.199 418.224 351.149 418.305 351.082C418.386 351.015 418.453 350.933 418.502 350.84C418.551 350.747 418.582 350.645 418.592 350.541C418.602 350.436 418.591 350.33 418.56 350.23C418.504 350.071 418.398 349.934 418.257 349.84C418.116 349.746 417.949 349.7 417.78 349.71C413.902 349.954 410.011 349.525 406.28 348.44C404.43 345.09 403.12 342.52 403.16 340.2L412.16 340.53C412.343 340.531 412.521 340.467 412.661 340.349C412.801 340.231 412.895 340.067 412.925 339.887C412.955 339.706 412.919 339.521 412.825 339.364C412.731 339.207 412.584 339.088 412.41 339.03C408.83 338.11 404.41 338.86 401.76 336.39C401.76 336.39 398.39 332.15 399.98 330.13C402.88 332.32 409.81 332 409.58 330.87Z" fill="black"/>
<path d="M393.16 408H410.32C413.273 407.999 416.138 406.992 418.443 405.145C420.748 403.298 422.355 400.722 423 397.84L429.47 368.91H374L380.47 397.84C381.116 400.724 382.724 403.301 385.031 405.148C387.338 406.995 390.205 408.001 393.16 408Z" fill="#407BFF"/>
<g opacity="0.3">
<path opacity="0.3" d="M393.16 408H410.32C413.273 407.999 416.138 406.992 418.443 405.145C420.748 403.298 422.355 400.722 423 397.84L429.47 368.91H374L380.47 397.84C381.116 400.724 382.724 403.301 385.031 405.148C387.338 406.995 390.205 408.001 393.16 408Z" fill="black"/>
</g>
<path opacity="0.1" d="M394.41 317.9C395.41 314.9 395.92 314.95 397.71 312.98C395.05 312.54 391.82 311.19 387.47 312.92C383.65 314.72 382.22 318.92 382.96 323.02C382.991 323.169 382.989 323.324 382.955 323.472C382.92 323.621 382.854 323.76 382.76 323.88C382.654 324.011 382.518 324.116 382.364 324.185C382.209 324.254 382.041 324.285 381.872 324.276C381.703 324.267 381.539 324.219 381.393 324.134C381.246 324.05 381.122 323.932 381.03 323.79C380.195 322.434 379.715 320.89 379.633 319.3C379.551 317.71 379.869 316.125 380.56 314.69C377.15 315.77 373.22 317.55 371.12 320.45C368.82 323.62 369.59 331.09 372.28 334.21C372.391 334.343 372.453 334.511 372.453 334.685C372.453 334.859 372.391 335.027 372.28 335.16C372.218 335.244 372.139 335.314 372.048 335.365C371.957 335.416 371.856 335.447 371.752 335.456C371.649 335.466 371.544 335.453 371.445 335.419C371.347 335.386 371.256 335.331 371.18 335.26C369.821 334.209 368.712 332.87 367.93 331.34C367.11 329.56 366.74 327.46 367.79 325.81C363.45 326.47 359.79 335.65 360.23 335.55C360.84 338.8 363.77 341.76 365.23 343.07C365.481 343.296 365.646 343.601 365.697 343.935C365.748 344.269 365.682 344.61 365.51 344.9C365.402 345.081 365.256 345.237 365.083 345.358C364.909 345.478 364.712 345.559 364.504 345.596C364.296 345.633 364.083 345.625 363.879 345.572C363.674 345.519 363.484 345.423 363.32 345.29C361.76 344.02 359.4 341.86 358.74 340.02C357.3 341.02 357.35 343.47 357.38 345.23C357.46 350.85 361.69 354.92 365.02 359.04C369.333 360.621 374.001 360.968 378.5 360.04C381.769 359.272 384.615 357.269 386.44 354.45V354.38C383.38 353.71 380 352.84 376.88 352.13C376.59 352.067 376.334 351.898 376.164 351.655C375.993 351.412 375.921 351.114 375.96 350.82C376.007 350.516 376.17 350.243 376.414 350.057C376.658 349.87 376.965 349.785 377.27 349.82C381.38 350.31 384.57 351.24 388.79 351.68C391.07 349.68 394.73 342.22 394.06 342.42C390.45 342.2 384.32 342.62 380.91 341.12C380.674 341.005 380.493 340.803 380.405 340.556C380.317 340.309 380.33 340.038 380.44 339.8C380.538 339.627 380.685 339.486 380.864 339.397C381.042 339.308 381.242 339.274 381.44 339.3C386.054 340.213 390.791 340.315 395.44 339.6C398.19 335.87 400.17 332.99 400.49 330.21L389.6 329.21C389.369 329.196 389.152 329.097 388.99 328.932C388.828 328.767 388.734 328.548 388.725 328.317C388.717 328.086 388.794 327.86 388.943 327.683C389.092 327.506 389.301 327.391 389.53 327.36H389.59C394.03 326.84 399.24 328.43 402.8 325.9C402.8 325.9 407.51 321.33 405.93 318.66C402.22 320.71 394 319.25 394.41 317.9Z" fill="white"/>
<path d="M364.16 228.55C363.65 228.93 363.28 229.21 362.83 229.55C362.38 229.89 361.98 230.14 361.55 230.43C360.69 231 359.81 231.53 358.92 232.06C357.119 233.118 355.259 234.073 353.35 234.92C351.357 235.812 349.293 236.538 347.18 237.09C346.049 237.391 344.9 237.619 343.74 237.77C343.15 237.84 342.53 237.87 341.9 237.92H340.9H340.28L339.62 237.87C338.089 237.687 336.606 237.215 335.25 236.48C334.146 235.89 333.104 235.19 332.14 234.39C330.459 232.977 328.93 231.392 327.58 229.66C325.07 226.436 322.958 222.92 321.29 219.19L325.9 216.32C328.305 219.036 330.859 221.617 333.55 224.05C334.771 225.165 336.09 226.169 337.49 227.05C338.055 227.401 338.655 227.693 339.28 227.92C339.639 228.063 340.024 228.128 340.41 228.11H340.51L340.98 228.04C341.31 227.98 341.64 227.92 341.98 227.82C342.67 227.65 343.39 227.43 344.12 227.18C345.668 226.604 347.181 225.936 348.65 225.18C350.17 224.39 351.7 223.55 353.2 222.63C353.93 222.21 354.69 221.7 355.44 221.23L356.54 220.51L359.54 218.51L364.16 228.55Z" fill="#407BFF"/>
<path opacity="0.2" d="M364.16 228.55C363.65 228.93 363.28 229.21 362.83 229.55C362.38 229.89 361.98 230.14 361.55 230.43C360.69 231 359.81 231.53 358.92 232.06C357.119 233.118 355.259 234.073 353.35 234.92C351.357 235.812 349.293 236.538 347.18 237.09C346.049 237.391 344.9 237.619 343.74 237.77C343.15 237.84 342.53 237.87 341.9 237.92H340.9H340.28L339.62 237.87C338.089 237.687 336.606 237.215 335.25 236.48C334.146 235.89 333.104 235.19 332.14 234.39C330.459 232.977 328.93 231.392 327.58 229.66C325.07 226.436 322.958 222.92 321.29 219.19L325.9 216.32C328.305 219.036 330.859 221.617 333.55 224.05C334.771 225.165 336.09 226.169 337.49 227.05C338.055 227.401 338.655 227.693 339.28 227.92C339.639 228.063 340.024 228.128 340.41 228.11H340.51L340.98 228.04C341.31 227.98 341.64 227.92 341.98 227.82C342.67 227.65 343.39 227.43 344.12 227.18C345.668 226.604 347.181 225.936 348.65 225.18C350.17 224.39 351.7 223.55 353.2 222.63C353.93 222.21 354.69 221.7 355.44 221.23L356.54 220.51L359.54 218.51L364.16 228.55Z" fill="black"/>
<path d="M323.38 219.58L319.06 217.51L322.54 212.14C322.54 212.14 326.19 215.14 326.54 218.21L323.38 219.58Z" fill="#FF8B7B"/>
<path d="M314.38 214.02L317.3 210.7L322.55 212.15L319.06 217.51L314.38 214.02Z" fill="#FF8B7B"/>
<path d="M405.62 410.08C406.082 408.976 406.731 407.961 407.54 407.08C407.54 407.08 410.79 401.49 408.28 391.78L412.75 387.85C413.969 387.859 415.137 388.339 416.01 389.19C416.58 389.816 417.101 390.485 417.57 391.19C419.21 394 422.8 400.45 422.8 400.45L422.13 400.82C420.95 398.911 419.661 397.071 418.27 395.31C416.8 393.66 416.83 396.6 417.37 399.09C417.91 401.58 416.31 405.52 412.05 408.09C407.12 411.17 404.93 412.14 405.62 410.08Z" fill="#263238"/>
<path d="M413.81 396.78C413.81 398.43 414.92 401.34 413.45 403.51C412.796 404.512 411.926 405.355 410.903 405.977C409.88 406.598 408.731 406.982 407.54 407.1C407.54 407.1 410.08 402.75 408.94 395.05C408.775 393.956 408.554 392.872 408.28 391.8C408.28 391.8 412.16 388.93 413.94 388.53L414.88 391.09C414.726 392.788 414.391 394.464 413.88 396.09C413.812 396.313 413.788 396.548 413.81 396.78Z" fill="#FF8B7B"/>
<path d="M414.88 391.09C414.726 392.788 414.391 394.464 413.88 396.09C413.802 396.311 413.768 396.546 413.78 396.78L410.12 398.33L408.91 395.05L404.61 383.36L411.02 380.64L413.91 388.53L414.88 391.09Z" fill="#FF8B7B"/>
<path opacity="0.2" d="M411.05 380.65L404.64 383.36L406.83 389.3H406.91C408.094 389.356 409.276 389.157 410.377 388.717C411.477 388.277 412.471 387.606 413.29 386.75L411.05 380.65Z" fill="black"/>
<path d="M356.8 406.42C357.782 405.775 358.863 405.295 360 405C360 405 365.75 402.05 368.86 392.51L374.86 391.3C375.385 391.557 375.851 391.918 376.231 392.362C376.611 392.806 376.897 393.322 377.07 393.88C377.12 394.927 377.1 395.976 377.01 397.02C376.91 400.29 376.37 408.76 376.37 408.76H375.6C375.655 406.158 375.575 403.554 375.36 400.96C375.01 398.78 373.45 401.26 372.56 403.66C371.67 406.06 368.21 408.49 363.22 408.38C357.43 408.13 355.08 407.76 356.8 406.42Z" fill="#263238"/>
<path d="M373.93 396C373.254 397.176 372.377 398.225 371.34 399.1C370.14 400.01 369.74 403.9 366.94 405.1C365.848 405.6 364.659 405.85 363.459 405.833C362.258 405.816 361.077 405.531 360 405C360 405 364.33 402.78 367.52 395.94C368.25 394.356 368.46 392.581 368.12 390.87L366 379.76L373.28 378.81L375.12 392.07C375.246 393.485 374.819 394.893 373.93 396Z" fill="#FF8B7B"/>
<path opacity="0.2" d="M365.38 375.55L367.06 385.31L367.69 385.46C368.772 385.706 369.894 385.717 370.981 385.493C372.068 385.268 373.094 384.814 373.99 384.16L372.75 374.71L365.38 375.55Z" fill="black"/>
<path d="M389.66 223.3C389.655 223.022 389.635 222.745 389.6 222.47C389.468 221.284 389.103 220.135 388.526 219.09C387.949 218.045 387.172 217.125 386.238 216.381C385.304 215.638 384.232 215.086 383.085 214.758C381.937 214.43 380.736 214.332 379.55 214.47H379.39C378.78 214.54 378.15 214.63 377.53 214.72C373.298 215.275 369.111 216.131 365 217.28C364.3 217.47 363.58 217.7 362.88 217.93C361.93 218.25 360.98 218.58 360.08 218.93C358.023 219.686 356.308 221.16 355.251 223.08C354.195 225 353.868 227.238 354.33 229.38C355.745 237.19 358.271 244.756 361.83 251.85C363.01 254.19 363.19 258.93 364.19 261.85L391.75 256.27V256.32C390.45 247.64 389.89 232.91 389.66 223.3Z" fill="#263238"/>
<path d="M364.21 261.79C364.21 261.79 362.68 296.99 361.31 324.01C360.23 345.5 364.42 382.21 364.42 382.21C368.223 383.179 372.255 382.619 375.65 380.65C375.81 382.38 377.31 346.85 375.65 326.39C383.39 296.46 394.74 268.17 386.36 257.15L364.21 261.79Z" fill="#263238"/>
<path opacity="0.3" d="M377.32 282.45L388.69 276C387.15 286.67 382.98 300.08 378.93 314.39C375.77 303 374.3 291.13 377.32 282.45Z" fill="black"/>
<path d="M369.15 262.65C369.15 262.65 376.69 289.92 381.55 316.05C383.66 334.83 403.87 386.17 403.87 386.17L407.35 385.51C409.001 385.19 410.532 384.418 411.77 383.28L412.94 382.21C412.94 382.21 406.94 345 401.15 330.51C401.29 300.23 401.85 267.6 390.47 257.44L369.15 262.65Z" fill="#263238"/>
<path d="M378.13 214.51C378.13 214.51 375.24 246.74 382.55 288.62C394.55 287.9 401.96 284.57 401.96 284.57C401.96 284.57 399.5 261.86 392.1 250.28C390.83 242.16 391.97 224.84 391.21 218.52C391.072 217.412 390.572 216.381 389.787 215.587C389.002 214.792 387.976 214.28 386.87 214.13C383.952 213.92 381.019 214.047 378.13 214.51Z" fill="#407BFF"/>
<path opacity="0.1" d="M378.13 214.51C378.13 214.51 375.24 246.74 382.55 288.62C394.55 287.9 401.96 284.57 401.96 284.57C401.96 284.57 399.5 261.86 392.1 250.28C390.83 242.16 391.97 224.84 391.21 218.52C391.072 217.412 390.572 216.381 389.787 215.587C389.002 214.792 387.976 214.28 386.87 214.13C383.952 213.92 381.019 214.047 378.13 214.51Z" fill="black"/>
<path d="M364.89 216.84C364.89 216.84 363.32 232.11 373.14 289.41C369.25 291.47 360.94 290.76 360.94 290.76C360.94 290.76 361.08 271.68 362.38 256.44C363.01 249.03 357.64 247.93 354.61 239.74C353.12 230.26 354.02 222.55 355.36 221.46C357.53 219.71 361.09 217.32 364.89 216.84Z" fill="#407BFF"/>
<path opacity="0.1" d="M364.89 216.84C364.89 216.84 363.32 232.11 373.14 289.41C369.25 291.47 360.94 290.76 360.94 290.76C360.94 290.76 361.08 271.68 362.38 256.44C363.01 249.03 357.64 247.93 354.61 239.74C353.12 230.26 354.02 222.55 355.36 221.46C357.53 219.71 361.09 217.32 364.89 216.84Z" fill="black"/>
<path opacity="0.7" d="M378 214.42C378 214.42 377.44 227.61 377.64 237.26C378.64 230.43 381.06 223.9 380.99 221.74C380.293 221.37 379.625 220.949 378.99 220.48C379.76 219.851 380.599 219.311 381.49 218.87C381.609 217.253 381.633 215.63 381.56 214.01C379.63 214.18 378 214.42 378 214.42Z" fill="white"/>
<path opacity="0.7" d="M365 216.72C364.802 224.351 365.136 231.986 366 239.57C363.87 233.48 361.12 227.66 361.37 225.37C362.48 224.44 363.46 223.37 363.46 223.37C362.753 222.929 361.975 222.614 361.16 222.44C361.19 220.737 361.32 219.038 361.55 217.35C363.44 217 365 216.72 365 216.72Z" fill="white"/>
<path d="M388 219.12C387.097 220.713 386.844 222.593 387.293 224.369C387.742 226.144 388.858 227.678 390.41 228.65H390.47C392.47 229.88 394.37 231.12 396.23 232.39C398.09 233.66 399.91 234.98 401.56 236.29C402.335 236.917 403.076 237.585 403.78 238.29C404.061 238.563 404.328 238.85 404.58 239.15C404.79 239.39 404.89 239.57 404.86 239.45L404.6 238.08C404.7 238.946 404.521 239.822 404.09 240.58C403.468 241.893 402.704 243.134 401.81 244.28C400.831 245.588 399.78 246.84 398.66 248.03C397.55 249.27 396.3 250.51 395.16 251.66L398.11 256.21C399.842 255.41 401.513 254.484 403.11 253.44C404.748 252.388 406.303 251.211 407.76 249.92C409.364 248.528 410.783 246.935 411.98 245.18C412.753 244.015 413.372 242.754 413.82 241.43C414.244 240.161 414.447 238.828 414.42 237.49V236.94L414.18 236.23C413.883 235.358 413.487 234.522 413 233.74C412.491 232.932 411.923 232.163 411.3 231.44C410.391 230.379 409.416 229.377 408.38 228.44C406.497 226.709 404.517 225.086 402.45 223.58C400.45 222.09 398.4 220.7 396.34 219.37C394.28 218.04 392.22 216.78 390 215.56L388 219.12Z" fill="#407BFF"/>
<path d="M398.61 251.79C396.434 251.048 394.063 251.112 391.93 251.97L394.45 259.6L398.38 256.19L398.61 251.79Z" fill="#FF8B7B"/>
<path d="M394.45 259.6L391.93 251.97L388.06 256.24L391.32 261.51L394.45 259.6Z" fill="#FF8B7B"/>
<path d="M361.27 213.75C359.684 204.344 361.013 194.678 365.08 186.05C369.84 176.05 389.71 183.05 386.71 199.83C384.94 209.72 380.71 208.04 388.18 214.65C392.49 218.45 379.78 219.44 378.73 216.9C378.73 216.9 374.19 217.33 371.04 214.78C371 214.78 362.07 218.93 361.27 213.75Z" fill="#263238"/>
<path d="M369 223.71C373.33 224.41 376.11 218.87 377.2 216.13H376.71C375.47 212.68 376.35 207.07 377.16 203.75L369.16 210.04C369.65 212.6 369.73 215.26 367.36 216.68C366.88 216.76 366.36 216.86 365.93 216.96C365.4 219.5 365.35 223.13 369 223.71Z" fill="#FF8B7B"/>
<path opacity="0.2" d="M373.72 206.33L369 210.05C369.159 210.794 369.26 211.55 369.3 212.31C371.04 212.13 373.71 210.69 373.97 208.88C374.037 208.022 373.953 207.159 373.72 206.33Z" fill="black"/>
<path d="M381.41 197.85C378.86 204.15 377.92 206.85 373.57 209.09C367.02 212.43 359.83 207.93 360.44 200.99C360.99 194.74 365.06 185.48 372.21 184.99C373.788 184.882 375.368 185.179 376.799 185.853C378.23 186.527 379.465 187.555 380.386 188.84C381.308 190.126 381.886 191.626 382.065 193.197C382.244 194.769 382.019 196.36 381.41 197.82V197.85Z" fill="#FF8B7B"/>
<path d="M366.4 195.83C365.532 196.872 364.522 197.788 363.4 198.55C363.598 198.835 363.856 199.073 364.157 199.246C364.458 199.419 364.794 199.523 365.14 199.55L366.4 195.83Z" fill="#D85B5B"/>
<path d="M373 194.91C373.045 194.925 373.095 194.925 373.14 194.91C373.173 194.897 373.203 194.877 373.227 194.852C373.252 194.828 373.272 194.798 373.285 194.765C373.298 194.732 373.305 194.697 373.304 194.662C373.303 194.627 373.295 194.592 373.28 194.56C373.087 194.092 372.785 193.677 372.398 193.35C372.012 193.023 371.553 192.793 371.06 192.68C370.988 192.668 370.915 192.685 370.856 192.727C370.797 192.769 370.757 192.833 370.745 192.905C370.733 192.977 370.75 193.05 370.792 193.109C370.834 193.168 370.898 193.208 370.97 193.22C371.376 193.319 371.753 193.513 372.069 193.786C372.385 194.059 372.633 194.403 372.79 194.79C372.813 194.825 372.844 194.854 372.881 194.875C372.917 194.896 372.958 194.908 373 194.91Z" fill="#263238"/>
<path d="M363.17 191C363.216 191.01 363.264 191.01 363.31 191C363.692 190.836 364.108 190.764 364.523 190.79C364.938 190.816 365.341 190.939 365.7 191.15C365.729 191.171 365.762 191.187 365.796 191.195C365.831 191.204 365.867 191.205 365.903 191.2C365.938 191.194 365.972 191.181 366.002 191.163C366.033 191.144 366.059 191.119 366.08 191.09C366.119 191.03 366.134 190.957 366.121 190.886C366.108 190.815 366.068 190.752 366.01 190.71C365.577 190.446 365.087 190.289 364.58 190.253C364.074 190.216 363.567 190.301 363.1 190.5C363.067 190.511 363.036 190.529 363.01 190.552C362.984 190.576 362.962 190.604 362.947 190.636C362.932 190.668 362.924 190.702 362.923 190.737C362.922 190.772 362.927 190.807 362.94 190.84C362.958 190.888 362.989 190.931 363.03 190.962C363.07 190.994 363.119 191.014 363.17 191.02V191Z" fill="#263238"/>
<path d="M370.39 196.2C370.22 196.72 369.8 197.05 369.45 196.94C369.1 196.83 368.97 196.31 369.16 195.78C369.35 195.25 369.75 194.93 370.09 195.04C370.43 195.15 370.57 195.67 370.39 196.2Z" fill="#263238"/>
<path d="M364.47 194.22C364.29 194.74 363.87 195.07 363.53 194.96C363.19 194.85 363.05 194.33 363.23 193.81C363.41 193.29 363.82 192.95 364.16 193.07C364.5 193.19 364.65 193.69 364.47 194.22Z" fill="#263238"/>
<path d="M364.3 193.14L363.17 192.36C363.17 192.36 363.49 193.56 364.3 193.14Z" fill="#263238"/>
<path d="M370.23 195.12L369.09 194.34C369.09 194.34 369.41 195.54 370.23 195.12Z" fill="#263238"/>
<path d="M369.05 203.29C369.392 203.196 369.727 203.076 370.05 202.93C370.095 202.908 370.13 202.871 370.148 202.824C370.167 202.778 370.167 202.727 370.15 202.68C370.128 202.635 370.091 202.6 370.044 202.582C369.998 202.563 369.947 202.563 369.9 202.58C369.166 202.925 368.361 203.093 367.55 203.07C366.739 203.048 365.944 202.835 365.23 202.45C365.209 202.436 365.185 202.425 365.16 202.42C365.135 202.415 365.11 202.414 365.085 202.419C365.06 202.424 365.036 202.433 365.014 202.447C364.993 202.461 364.974 202.479 364.96 202.5C364.946 202.521 364.935 202.545 364.93 202.57C364.925 202.595 364.924 202.62 364.929 202.645C364.934 202.67 364.943 202.694 364.957 202.716C364.971 202.737 364.989 202.756 365.01 202.77C366.24 203.455 367.686 203.641 369.05 203.29Z" fill="#263238"/>
<path d="M369.91 187C369.91 187 367.72 188.81 369.02 190.56C370.32 192.31 374.35 191.56 375.12 194.91C375.89 198.26 374.43 200.85 376.86 201.91C379.29 202.97 381.62 199.65 381.62 199.65C381.62 199.65 385.45 191.85 380.72 187.65C375.99 183.45 370.49 181.98 367.2 183.88C363.91 185.78 362.07 187.15 363.29 187.97C364.51 188.79 366.41 189.38 367.23 188.56C367.954 187.792 368.885 187.25 369.91 187Z" fill="#263238"/>
<path d="M381.23 203.44C380.466 204.499 379.317 205.217 378.03 205.44C376.31 205.72 375.64 204.14 376.27 202.61C376.84 201.25 378.42 199.44 380.08 199.85C380.652 200.013 381.136 200.396 381.427 200.915C381.717 201.434 381.79 202.047 381.63 202.62C381.559 202.92 381.423 203.2 381.23 203.44Z" fill="#FF8B7B"/>
<path d="M364.9 217.07C365.501 216.705 366.198 216.531 366.9 216.57C366.9 216.57 364.96 222.73 369.38 223.08C373.8 223.43 377.13 215.87 377.13 215.87C377.433 215.755 377.758 215.712 378.081 215.743C378.404 215.774 378.715 215.879 378.99 216.05C378.99 216.05 375.49 224.81 369.4 224.56C363.31 224.31 364.9 217.07 364.9 217.07Z" fill="#407BFF"/>
<path opacity="0.7" d="M364.9 217.07C365.501 216.705 366.198 216.531 366.9 216.57C366.9 216.57 364.96 222.73 369.38 223.08C373.8 223.43 377.13 215.87 377.13 215.87C377.433 215.755 377.758 215.712 378.081 215.743C378.404 215.774 378.715 215.879 378.99 216.05C378.99 216.05 375.49 224.81 369.4 224.56C363.31 224.31 364.9 217.07 364.9 217.07Z" fill="white"/>
<path d="M377.59 198.11L373.34 196.46C373.2 195.26 371.68 194.67 371.03 194.41C370.38 194.15 368.73 193.52 367.83 194.46L366.35 193.89C366.35 192.59 364.7 191.95 364.02 191.69C363.34 191.43 361.14 190.57 360.44 192.37C360.227 193.115 360.299 193.913 360.643 194.607C360.987 195.301 361.578 195.842 362.3 196.124C363.022 196.405 363.823 196.407 364.546 196.129C365.269 195.851 365.863 195.313 366.21 194.62C366.248 194.526 366.278 194.429 366.3 194.33L367.57 194.82C367.519 194.906 367.475 194.996 367.44 195.09C367.227 195.835 367.299 196.633 367.643 197.327C367.987 198.021 368.578 198.562 369.3 198.844C370.022 199.125 370.823 199.127 371.546 198.849C372.269 198.571 372.863 198.033 373.21 197.34C373.267 197.202 373.307 197.058 373.33 196.91L377.43 198.51C377.994 198.726 378.465 199.133 378.76 199.66L379.13 199.45C378.786 198.84 378.242 198.367 377.59 198.11ZM362.47 195.69C361.835 195.483 361.306 195.035 360.999 194.442C360.692 193.848 360.632 193.158 360.83 192.52C361.21 191.52 362.12 191.41 363.83 192.09C365.54 192.77 366.16 193.48 365.78 194.46C365.496 195.054 364.991 195.515 364.374 195.744C363.756 195.974 363.074 195.954 362.47 195.69ZM369.47 198.41C368.835 198.206 368.307 197.759 368 197.167C367.693 196.576 367.632 195.887 367.83 195.25C368.22 194.25 369.12 194.13 370.83 194.81C372.54 195.49 373.16 196.2 372.78 197.18C372.497 197.776 371.993 198.238 371.375 198.468C370.757 198.698 370.073 198.677 369.47 198.41Z" fill="#263238"/>
<path d="M129 205.24C129 205.24 120.91 205.84 116.5 215.11C112.09 224.38 109.08 241.79 119.5 242.25C129.92 242.71 128.98 240.16 128.98 240.16V235.52L122.29 233.52C121.957 233.419 121.647 233.252 121.38 233.029C121.114 232.806 120.895 232.531 120.737 232.221C120.579 231.91 120.485 231.571 120.462 231.224C120.438 230.877 120.485 230.529 120.6 230.2L124.12 220.2L129 205.24Z" fill="#407BFF"/>
<path opacity="0.2" d="M129 205.24C129 205.24 120.91 205.84 116.5 215.11C112.09 224.38 109.08 241.79 119.5 242.25C129.92 242.71 128.98 240.16 128.98 240.16V235.52L122.29 233.52C121.957 233.419 121.647 233.252 121.38 233.029C121.114 232.806 120.895 232.531 120.737 232.221C120.579 231.91 120.485 231.571 120.462 231.224C120.438 230.877 120.485 230.529 120.6 230.2L124.12 220.2L129 205.24Z" fill="black"/>
<path d="M150.07 181.21C150.41 181.15 150.76 181.51 150.87 182.02C150.98 182.53 150.79 183.02 150.45 183.02C150.11 183.02 149.76 182.73 149.65 182.22C149.54 181.71 149.73 181.27 150.07 181.21Z" fill="#263238"/>
<path d="M151.05 188C151.494 188.015 151.936 187.933 152.345 187.76C152.754 187.588 153.121 187.328 153.42 187C152.131 185.855 151.004 184.539 150.07 183.09L151.05 188Z" fill="#EC837E"/>
<path d="M147.41 179.73C147.66 179.432 147.977 179.198 148.335 179.046C148.693 178.895 149.082 178.831 149.47 178.86C149.502 178.871 149.538 178.871 149.57 178.86C149.652 178.86 149.731 178.827 149.789 178.769C149.847 178.711 149.88 178.632 149.88 178.55C149.881 178.509 149.874 178.468 149.859 178.43C149.844 178.392 149.821 178.357 149.792 178.328C149.763 178.299 149.729 178.276 149.69 178.261C149.652 178.246 149.611 178.239 149.57 178.24C149.086 178.182 148.596 178.243 148.141 178.418C147.687 178.592 147.281 178.874 146.96 179.24C146.909 179.298 146.88 179.373 146.88 179.45C146.882 179.532 146.915 179.611 146.973 179.67C147.03 179.729 147.108 179.765 147.19 179.77C147.266 179.78 147.343 179.766 147.41 179.73Z" fill="#263238"/>
<path d="M145.28 197.2C144.34 200.91 144.28 205.51 148.35 206.77C148.35 206.77 153.41 211.01 143.67 211.01C134.83 211.01 133.52 206.18 133.52 206.18C136.86 202.99 136.29 196.4 135.36 191.63L145.28 197.2Z" fill="#FFC2BC"/>
<path d="M129.91 205.36C129.91 205.36 131.51 201.12 133.69 199.86C135.87 198.6 145.03 200.48 146.45 201.11C147.87 201.74 149.17 205.11 149.17 205.11L129.91 205.36Z" fill="#407BFF"/>
<path opacity="0.2" d="M129.91 205.36C129.91 205.36 131.51 201.12 133.69 199.86C135.87 198.6 145.03 200.48 146.45 201.11C147.87 201.74 149.17 205.11 149.17 205.11L129.91 205.36Z" fill="black"/>
<path d="M143.86 401.94C143.829 401.935 143.8 401.921 143.777 401.899C143.755 401.877 143.74 401.849 143.734 401.818C143.729 401.787 143.733 401.755 143.747 401.727C143.76 401.698 143.782 401.675 143.81 401.66C143.93 401.6 146.21 400.31 147.29 400.6C147.393 400.624 147.49 400.668 147.576 400.73C147.662 400.792 147.735 400.87 147.79 400.96C147.858 401.059 147.894 401.175 147.894 401.295C147.894 401.415 147.858 401.532 147.79 401.63C147.52 402.01 146.79 402.13 145.87 402.13C145.196 402.121 144.524 402.058 143.86 401.94ZM146.86 400.85C145.961 400.959 145.092 401.24 144.3 401.68C145.51 401.85 147.16 401.84 147.46 401.42C147.53 401.36 147.56 401.27 147.46 401.08C147.429 401.025 147.385 400.978 147.333 400.941C147.282 400.905 147.222 400.881 147.16 400.87C147.061 400.85 146.959 400.85 146.86 400.87V400.85Z" fill="#407BFF"/>
<path d="M143.8 401.91C143.761 401.873 143.736 401.823 143.73 401.77C143.774 400.845 144.126 399.962 144.73 399.26C144.849 399.158 144.988 399.082 145.137 399.035C145.287 398.989 145.444 398.973 145.6 398.99C146.03 399.04 146.18 399.26 146.18 399.43C146.3 400.19 144.74 401.57 143.95 401.93H143.89C143.859 401.93 143.828 401.923 143.8 401.91ZM145.52 399.29C145.418 399.289 145.316 399.309 145.222 399.349C145.127 399.388 145.041 399.447 144.97 399.52C144.481 400.081 144.178 400.78 144.1 401.52C144.91 401.03 145.96 399.92 145.89 399.52C145.89 399.52 145.89 399.35 145.59 399.35H145.5L145.52 399.29Z" fill="#407BFF"/>
<path d="M137.4 386.69H143.91L143.26 401.77H136.75L137.4 386.69Z" fill="#FFC2BC"/>
<path d="M144.79 401.53C149.19 404.24 150.55 404.36 155.64 405.53C156.76 405.77 156.02 408.47 153.35 408.47C148.93 408.47 148.47 408.27 144.7 408.27C141.47 408.27 137.77 408.41 135.2 408.46C135.124 408.47 135.046 408.47 134.97 408.46C134.727 408.403 134.517 408.252 134.386 408.04C134.255 407.828 134.213 407.573 134.27 407.33L135.55 401.55C135.579 401.423 135.65 401.31 135.752 401.228C135.854 401.146 135.98 401.101 136.11 401.1H143.22C143.773 401.096 144.316 401.245 144.79 401.53Z" fill="#263238"/>
<path d="M152.7 205.26C146.229 204.779 139.737 204.629 133.25 204.81C131.55 204.93 129.86 205.1 128.18 205.31C127.341 205.417 126.532 205.692 125.802 206.119C125.072 206.546 124.436 207.116 123.932 207.795C123.428 208.474 123.066 209.248 122.868 210.07C122.67 210.892 122.64 211.746 122.78 212.58C126.64 235.72 124.7 258.42 124.17 262.98L158.96 262.65C162.6 234.01 161.63 219.57 160.23 212.56C159.864 210.723 158.948 209.041 157.603 207.737C156.258 206.433 154.548 205.569 152.7 205.26Z" fill="#407BFF"/>
<path opacity="0.1" d="M152.7 205.26C146.229 204.779 139.737 204.629 133.25 204.81C131.55 204.93 129.86 205.1 128.18 205.31C127.341 205.417 126.532 205.692 125.802 206.119C125.072 206.546 124.436 207.116 123.932 207.795C123.428 208.474 123.066 209.248 122.868 210.07C122.67 210.892 122.64 211.746 122.78 212.58C126.64 235.72 124.7 258.42 124.17 262.98L158.96 262.65C162.6 234.01 161.63 219.57 160.23 212.56C159.864 210.723 158.948 209.041 157.603 207.737C156.258 206.433 154.548 205.569 152.7 205.26Z" fill="black"/>
<path opacity="0.2" d="M137.39 386.7L137.06 394.47H143.58L143.91 386.7H137.39Z" fill="black"/>
<path d="M132.09 180.62C132.533 178.323 133.87 176.295 135.807 174.983C137.744 173.67 140.122 173.18 142.42 173.62C149.12 174.88 151.89 184.08 151.69 190.04C151.49 196.65 144.24 201.13 138.45 197.23C134.6 194.63 133.93 190.9 132.26 184.66C131.896 183.344 131.837 181.962 132.09 180.62Z" fill="#FFC2BC"/>
<path d="M124.68 260.57C124.68 260.57 118.01 281.94 112.85 303.69C106.12 332 89.9 390 89.9 390L101.38 392.53C101.38 392.53 125.06 325.09 131.28 304.76C136.97 286.2 147.15 260.59 147.15 260.59L124.68 260.57Z" fill="#263238"/>
<path opacity="0.3" d="M138.54 284.34C128.3 312.19 126.13 320.55 125.98 321.09C127.22 304.14 132.32 285.23 138.54 284.34C139 284.27 138.12 284.21 138.54 284.34Z" fill="black"/>
<path d="M136.6 260.57C136.6 260.57 135.84 284.26 135.36 306.37C134.91 326.66 135.36 392.97 135.36 392.97H146.36C146.36 392.97 154.83 325.32 157.07 304.69C159.24 284.87 159.47 260.57 159.47 260.57H136.6Z" fill="#263238"/>
<path d="M133.73 389.07L134.1 393.15H147.51C147.51 393.15 148.18 388.57 148.13 388.57L133.73 389.07Z" fill="#407BFF"/>
<path d="M89.58 401.87C89.5691 401.898 89.5499 401.923 89.5249 401.94C89.4999 401.957 89.4703 401.966 89.44 401.966C89.4097 401.966 89.3801 401.957 89.3551 401.94C89.3301 401.923 89.3109 401.898 89.3 401.87C89.24 401.76 87.96 399.47 88.3 398.39C88.3518 398.186 88.4809 398.01 88.66 397.9C88.76 397.831 88.8786 397.794 89 397.794C89.1214 397.794 89.24 397.831 89.34 397.9C89.71 398.18 89.82 398.95 89.82 399.82C89.798 400.509 89.7177 401.195 89.58 401.87ZM88.52 398.82C88.6115 399.717 88.88 400.587 89.31 401.38C89.49 400.17 89.49 398.53 89.07 398.22C89.07 398.15 88.93 398.12 88.73 398.22C88.6739 398.252 88.6259 398.297 88.5895 398.351C88.5531 398.405 88.5294 398.466 88.52 398.53C88.5 398.626 88.5 398.724 88.52 398.82Z" fill="#407BFF"/>
<path d="M89.57 401.93C89.5542 401.952 89.5328 401.969 89.5082 401.979C89.4836 401.99 89.4566 401.993 89.43 401.99C88.5089 401.943 87.6294 401.591 86.93 400.99C86.8299 400.87 86.7552 400.731 86.7105 400.582C86.6658 400.432 86.652 400.275 86.67 400.12C86.67 399.7 86.93 399.56 87.11 399.56C87.85 399.44 89.24 401.01 89.59 401.79V401.85C89.5915 401.878 89.5846 401.906 89.57 401.93ZM87 400.22C87.0114 400.419 87.0888 400.609 87.22 400.76C87.7817 401.248 88.4799 401.552 89.22 401.63C88.74 400.82 87.64 399.76 87.22 399.83C87.22 399.83 87.05 399.83 87.05 400.13V400.22H87Z" fill="#407BFF"/>
<path d="M92.42 389.37L98.77 389.85L95.84 402.32L89.48 401.87L92.42 389.37Z" fill="#FFC2BC"/>
<path opacity="0.2" d="M92.5 389.02L91.21 394.51L97.56 394.96L98.86 389.46L92.5 389.02Z" fill="black"/>
<path d="M88 401C86.29 403 85.38 404.07 80.41 405.64C79.31 405.98 80.29 408.64 82.96 408.37C87.36 407.98 84.96 407.99 88.68 407.65C91.89 407.37 95.59 407.19 98.15 407.01C98.2364 407.02 98.3236 407.02 98.41 407.01C98.6406 406.922 98.8305 406.752 98.9432 406.532C99.0558 406.312 99.0832 406.059 99.02 405.82L97.23 400.16C97.1915 400.037 97.1118 399.931 97.0044 399.86C96.8969 399.789 96.7682 399.757 96.64 399.77L89.56 400.4C88.9813 400.387 88.4208 400.603 88 401Z" fill="#263238"/>
<path d="M88.53 387.85L88.46 392L102.27 393.48C102.27 393.48 103.45 389 103.4 389L88.53 387.85Z" fill="#407BFF"/>
<path d="M134.24 172.28C137.54 171.01 138.03 170.71 139.96 167.74C141.03 166.08 140.88 164.63 144.13 164.1C145.863 163.805 147.644 164.124 149.167 165.001C150.689 165.878 151.858 167.26 152.472 168.906C153.086 170.553 153.106 172.363 152.529 174.023C151.951 175.683 150.813 177.089 149.31 178C147.61 179.05 150.13 176.51 148.31 177.28C146.49 178.05 146.87 177.17 146.76 179.17C146.67 180.7 147.6 182.08 148.2 183.5C148.8 184.92 148.94 186.83 147.69 187.73C148.04 186.56 145.19 189.73 145.3 190.97C145.6 194.35 142.6 197.45 139.25 197.91C131.87 198.91 127.02 190.35 124.89 184.46C122 176.62 126.45 175.27 134.24 172.28Z" fill="#263238"/>
<path d="M146.3 181.92C148.15 182.48 149.09 185.23 149.16 186.97C149.22 188.89 147.93 190.09 146.27 188.79C145.017 187.786 144.129 186.398 143.74 184.84C143.31 183 144.45 181.35 146.3 181.92Z" fill="#FFC2BC"/>
<path opacity="0.1" d="M152.79 205.79C154.695 205.688 156.582 206.205 158.169 207.265C159.755 208.325 160.955 209.871 161.59 211.67C163.44 216.37 167.12 226.81 169 232.19C169.099 232.476 169.28 232.728 169.52 232.912C169.76 233.097 170.049 233.208 170.351 233.23C170.653 233.252 170.955 233.186 171.22 233.038C171.484 232.891 171.7 232.669 171.84 232.4L174.35 227.67C174.35 227.67 178.06 228.37 179.45 231.61C180.84 234.85 172.45 243.69 168.09 243.67C163.19 243.67 156.83 231.67 155.09 226.2C152.981 219.616 152.199 212.679 152.79 205.79Z" fill="white"/>
<path d="M174.35 229.2L177.22 224.33C177.22 224.33 175.6 221.33 176.66 219.33C177.72 217.33 178.77 218.95 179.8 218.33C180.83 217.71 183.14 213.48 184.25 215.61C185.36 217.74 186.74 221.42 181.02 225.77L177.93 233.53L174.35 229.2Z" fill="#FFC2BC"/>
<path d="M174.78 227.15C176.035 227.418 177.193 228.027 178.126 228.908C179.059 229.79 179.732 230.912 180.07 232.15V232.25C180.15 232.7 180.71 236.03 180.07 236.09C179.43 236.15 178.51 232.96 173.25 230.19C173.174 230.15 173.107 230.096 173.053 230.029C172.999 229.963 172.958 229.887 172.934 229.805C172.91 229.723 172.902 229.637 172.912 229.552C172.922 229.467 172.948 229.385 172.99 229.31L174.12 227.45C174.183 227.336 174.282 227.245 174.401 227.191C174.519 227.137 174.652 227.123 174.78 227.15Z" fill="#407BFF"/>
<path d="M174.78 227.15C176.035 227.418 177.193 228.027 178.126 228.908C179.059 229.79 179.732 230.912 180.07 232.15V232.25C180.15 232.7 180.71 236.03 180.07 236.09C179.43 236.15 178.51 232.96 173.25 230.19C173.174 230.15 173.107 230.096 173.053 230.029C172.999 229.963 172.958 229.887 172.934 229.805C172.91 229.723 172.902 229.637 172.912 229.552C172.922 229.467 172.948 229.385 172.99 229.31L174.12 227.45C174.183 227.336 174.282 227.245 174.401 227.191C174.519 227.137 174.652 227.123 174.78 227.15Z" fill="#407BFF"/>
<path d="M152.79 205.79C154.695 205.688 156.582 206.205 158.169 207.265C159.755 208.325 160.955 209.871 161.59 211.67C163.44 216.37 167.12 226.81 169 232.19C169.099 232.476 169.28 232.728 169.52 232.912C169.76 233.097 170.049 233.208 170.351 233.23C170.653 233.252 170.955 233.186 171.22 233.038C171.484 232.891 171.7 232.669 171.84 232.4L174.35 227.67C174.35 227.67 178.06 228.37 179.45 231.61C180.84 234.85 172.45 243.69 168.09 243.67C163.19 243.67 156.83 231.67 155.09 226.2C152.981 219.616 152.199 212.679 152.79 205.79Z" fill="#407BFF"/>
<path opacity="0.1" d="M152.79 205.79C154.695 205.688 156.582 206.205 158.169 207.265C159.755 208.325 160.955 209.871 161.59 211.67C163.44 216.37 167.12 226.81 169 232.19C169.099 232.476 169.28 232.728 169.52 232.912C169.76 233.097 170.049 233.208 170.351 233.23C170.653 233.252 170.955 233.186 171.22 233.038C171.484 232.891 171.7 232.669 171.84 232.4L174.35 227.67C174.35 227.67 178.06 228.37 179.45 231.61C180.84 234.85 172.45 243.69 168.09 243.67C163.19 243.67 156.83 231.67 155.09 226.2C152.981 219.616 152.199 212.679 152.79 205.79Z" fill="white"/>
</svg>
