<svg width="113" height="95" viewBox="0 0 113 95" fill="none" xmlns="http://www.w3.org/2000/svg">
<g id="Shabeb-logo">
<g id="Shabeb-logo_2">
<g id="Group 1">
<rect id="Rectangle 1" width="16.3186" height="45.6807" rx="8.1593" transform="matrix(0.83617 0.54847 -0.496844 0.86784 98.3866 19.887)" fill="black"/>
<ellipse id="Ellipse 1" cx="104.022" cy="8.56487" rx="8.00169" ry="8.56487" fill="black"/>
</g>
<rect id="Rectangle 2" y="65.2562" width="17.1297" height="43.2322" rx="8.56487" transform="rotate(-90 0 65.2562)" fill="#C4C4C4"/>
<g id="Group 2">
<rect id="Rectangle 1_2" width="16.3186" height="45.6807" rx="8.1593" transform="matrix(0.83617 0.54847 -0.496844 0.86784 72.4845 19.887)" fill="black"/>
<ellipse id="Ellipse 1_2" cx="78.1199" cy="8.56487" rx="8.00169" ry="8.56487" fill="black"/>
</g>
<g id="Group 3">
<rect id="Rectangle 1_3" width="16.3186" height="45.6807" rx="8.1593" transform="matrix(0.83617 0.54847 -0.496844 0.86784 47.8444 19.887)" fill="black"/>
<ellipse id="Ellipse 1_3" cx="53.4797" cy="8.56487" rx="8.00169" ry="8.56487" fill="black"/>
</g>
</g>
<path id="Shabeb" d="M20.364 88.126C19.536 88.126 18.792 87.982 18.132 87.694C17.484 87.394 16.974 86.986 16.602 86.47C16.23 85.942 16.038 85.336 16.026 84.652H17.772C17.832 85.24 18.072 85.738 18.492 86.146C18.924 86.542 19.548 86.74 20.364 86.74C21.144 86.74 21.756 86.548 22.2 86.164C22.656 85.768 22.884 85.264 22.884 84.652C22.884 84.172 22.752 83.782 22.488 83.482C22.224 83.182 21.894 82.954 21.498 82.798C21.102 82.642 20.568 82.474 19.896 82.294C19.068 82.078 18.402 81.862 17.898 81.646C17.406 81.43 16.98 81.094 16.62 80.638C16.272 80.17 16.098 79.546 16.098 78.766C16.098 78.082 16.272 77.476 16.62 76.948C16.968 76.42 17.454 76.012 18.078 75.724C18.714 75.436 19.44 75.292 20.256 75.292C21.432 75.292 22.392 75.586 23.136 76.174C23.892 76.762 24.318 77.542 24.414 78.514H22.614C22.554 78.034 22.302 77.614 21.858 77.254C21.414 76.882 20.826 76.696 20.094 76.696C19.41 76.696 18.852 76.876 18.42 77.236C17.988 77.584 17.772 78.076 17.772 78.712C17.772 79.168 17.898 79.54 18.15 79.828C18.414 80.116 18.732 80.338 19.104 80.494C19.488 80.638 20.022 80.806 20.706 80.998C21.534 81.226 22.2 81.454 22.704 81.682C23.208 81.898 23.64 82.24 24 82.708C24.36 83.164 24.54 83.788 24.54 84.58C24.54 85.192 24.378 85.768 24.054 86.308C23.73 86.848 23.25 87.286 22.614 87.622C21.978 87.958 21.228 88.126 20.364 88.126ZM31.8465 77.956C32.5905 77.956 33.2625 78.118 33.8625 78.442C34.4625 78.754 34.9305 79.228 35.2665 79.864C35.6145 80.5 35.7885 81.274 35.7885 82.186V88H34.1685V82.42C34.1685 81.436 33.9225 80.686 33.4305 80.17C32.9385 79.642 32.2665 79.378 31.4145 79.378C30.5505 79.378 29.8605 79.648 29.3445 80.188C28.8405 80.728 28.5885 81.514 28.5885 82.546V88H26.9505V74.68H28.5885V79.54C28.9125 79.036 29.3565 78.646 29.9205 78.37C30.4965 78.094 31.1385 77.956 31.8465 77.956ZM37.8521 83.032C37.8521 82.024 38.0561 81.142 38.4641 80.386C38.8721 79.618 39.4301 79.024 40.1381 78.604C40.8581 78.184 41.6561 77.974 42.5321 77.974C43.3961 77.974 44.1461 78.16 44.7821 78.532C45.4181 78.904 45.8921 79.372 46.2041 79.936V78.136H47.8601V88H46.2041V86.164C45.8801 86.74 45.3941 87.22 44.7461 87.604C44.1101 87.976 43.3661 88.162 42.5141 88.162C41.6381 88.162 40.8461 87.946 40.1381 87.514C39.4301 87.082 38.8721 86.476 38.4641 85.696C38.0561 84.916 37.8521 84.028 37.8521 83.032ZM46.2041 83.05C46.2041 82.306 46.0541 81.658 45.7541 81.106C45.4541 80.554 45.0461 80.134 44.5301 79.846C44.0261 79.546 43.4681 79.396 42.8561 79.396C42.2441 79.396 41.6861 79.54 41.1821 79.828C40.6781 80.116 40.2761 80.536 39.9761 81.088C39.6761 81.64 39.5261 82.288 39.5261 83.032C39.5261 83.788 39.6761 84.448 39.9761 85.012C40.2761 85.564 40.6781 85.99 41.1821 86.29C41.6861 86.578 42.2441 86.722 42.8561 86.722C43.4681 86.722 44.0261 86.578 44.5301 86.29C45.0461 85.99 45.4541 85.564 45.7541 85.012C46.0541 84.448 46.2041 83.794 46.2041 83.05ZM52.2662 79.972C52.6022 79.384 53.0942 78.904 53.7422 78.532C54.3902 78.16 55.1282 77.974 55.9562 77.974C56.8442 77.974 57.6422 78.184 58.3502 78.604C59.0582 79.024 59.6162 79.618 60.0242 80.386C60.4322 81.142 60.6362 82.024 60.6362 83.032C60.6362 84.028 60.4322 84.916 60.0242 85.696C59.6162 86.476 59.0522 87.082 58.3322 87.514C57.6242 87.946 56.8322 88.162 55.9562 88.162C55.1042 88.162 54.3542 87.976 53.7062 87.604C53.0702 87.232 52.5902 86.758 52.2662 86.182V88H50.6282V74.68H52.2662V79.972ZM58.9622 83.032C58.9622 82.288 58.8122 81.64 58.5122 81.088C58.2122 80.536 57.8042 80.116 57.2882 79.828C56.7842 79.54 56.2262 79.396 55.6142 79.396C55.0142 79.396 54.4562 79.546 53.9402 79.846C53.4362 80.134 53.0282 80.56 52.7162 81.124C52.4162 81.676 52.2662 82.318 52.2662 83.05C52.2662 83.794 52.4162 84.448 52.7162 85.012C53.0282 85.564 53.4362 85.99 53.9402 86.29C54.4562 86.578 55.0142 86.722 55.6142 86.722C56.2262 86.722 56.7842 86.578 57.2882 86.29C57.8042 85.99 58.2122 85.564 58.5122 85.012C58.8122 84.448 58.9622 83.788 58.9622 83.032ZM71.7923 82.69C71.7923 83.002 71.7743 83.332 71.7383 83.68H63.8543C63.9143 84.652 64.2443 85.414 64.8443 85.966C65.4563 86.506 66.1943 86.776 67.0583 86.776C67.7663 86.776 68.3543 86.614 68.8223 86.29C69.3023 85.954 69.6383 85.51 69.8303 84.958H71.5943C71.3303 85.906 70.8023 86.68 70.0103 87.28C69.2183 87.868 68.2343 88.162 67.0583 88.162C66.1223 88.162 65.2823 87.952 64.5383 87.532C63.8063 87.112 63.2303 86.518 62.8103 85.75C62.3903 84.97 62.1803 84.07 62.1803 83.05C62.1803 82.03 62.3843 81.136 62.7923 80.368C63.2003 79.6 63.7703 79.012 64.5023 78.604C65.2463 78.184 66.0983 77.974 67.0583 77.974C67.9943 77.974 68.8223 78.178 69.5423 78.586C70.2623 78.994 70.8143 79.558 71.1983 80.278C71.5943 80.986 71.7923 81.79 71.7923 82.69ZM70.1003 82.348C70.1003 81.724 69.9623 81.19 69.6863 80.746C69.4103 80.29 69.0323 79.948 68.5523 79.72C68.0843 79.48 67.5623 79.36 66.9863 79.36C66.1583 79.36 65.4503 79.624 64.8623 80.152C64.2863 80.68 63.9563 81.412 63.8723 82.348H70.1003ZM75.5924 79.972C75.9284 79.384 76.4204 78.904 77.0684 78.532C77.7164 78.16 78.4544 77.974 79.2824 77.974C80.1704 77.974 80.9684 78.184 81.6764 78.604C82.3844 79.024 82.9424 79.618 83.3504 80.386C83.7584 81.142 83.9624 82.024 83.9624 83.032C83.9624 84.028 83.7584 84.916 83.3504 85.696C82.9424 86.476 82.3784 87.082 81.6584 87.514C80.9504 87.946 80.1584 88.162 79.2824 88.162C78.4304 88.162 77.6804 87.976 77.0324 87.604C76.3964 87.232 75.9164 86.758 75.5924 86.182V88H73.9544V74.68H75.5924V79.972ZM82.2884 83.032C82.2884 82.288 82.1384 81.64 81.8384 81.088C81.5384 80.536 81.1304 80.116 80.6144 79.828C80.1104 79.54 79.5524 79.396 78.9404 79.396C78.3404 79.396 77.7824 79.546 77.2664 79.846C76.7624 80.134 76.3544 80.56 76.0424 81.124C75.7424 81.676 75.5924 82.318 75.5924 83.05C75.5924 83.794 75.7424 84.448 76.0424 85.012C76.3544 85.564 76.7624 85.99 77.2664 86.29C77.7824 86.578 78.3404 86.722 78.9404 86.722C79.5524 86.722 80.1104 86.578 80.6144 86.29C81.1304 85.99 81.5384 85.564 81.8384 85.012C82.1384 84.448 82.2884 83.788 82.2884 83.032Z" fill="black"/>
</g>
</svg>
